<svg xmlns="http://www.w3.org/2000/svg" xmlns:xlink="http://www.w3.org/1999/xlink" width="500" zoomAndPan="magnify" viewBox="0 0 375 374.999991" height="500" preserveAspectRatio="xMidYMid meet" version="1.0"><defs><g/><clipPath id="857a706f59"><path d="M 7.949219 157.03125 L 367.132812 157.03125 L 367.132812 223.421875 L 7.949219 223.421875 Z M 7.949219 157.03125 " clip-rule="nonzero"/></clipPath><clipPath id="5ba056763f"><path d="M 36.074219 157.03125 L 367.050781 157.03125 L 338.925781 223.421875 L 7.949219 223.421875 Z M 36.074219 157.03125 " clip-rule="nonzero"/></clipPath></defs><g clip-path="url(#857a706f59)"><g clip-path="url(#5ba056763f)"><path fill="#268c4a" d="M 7.949219 157.03125 L 367.132812 157.03125 L 367.132812 223.421875 L 7.949219 223.421875 Z M 7.949219 157.03125 " fill-opacity="1" fill-rule="nonzero"/></g></g><g fill="#dce61e" fill-opacity="1"><g transform="translate(36.936766, 204.405265)"><g><path d="M -3.734375 0 L 8.90625 -38.59375 L 21.96875 -38.59375 L 16.765625 0 L 9.4375 0 L 10.34375 -6.25 L 5.671875 -6.25 L 3.78125 0 Z M 7.6875 -12.40625 L 11.1875 -12.40625 L 13.984375 -32.046875 L 13.625 -32.046875 Z M 7.6875 -12.40625 "/></g></g></g><g fill="#dce61e" fill-opacity="1"><g transform="translate(58.727666, 204.405265)"><g><path d="M 6.203125 0.359375 C 3.023438 0.359375 0.875 -0.535156 -0.25 -2.328125 C -1.375 -4.128906 -1.53125 -6.796875 -0.71875 -10.328125 L 5.796875 -38.59375 L 13.296875 -38.59375 L 6.828125 -10.65625 C 6.554688 -9.425781 6.457031 -8.460938 6.53125 -7.765625 C 6.613281 -7.078125 7.046875 -6.734375 7.828125 -6.734375 C 8.597656 -6.734375 9.1875 -7.070312 9.59375 -7.75 C 10 -8.425781 10.335938 -9.394531 10.609375 -10.65625 L 17.078125 -38.59375 L 24.578125 -38.59375 L 18.0625 -10.328125 C 17.257812 -6.796875 15.875 -4.128906 13.90625 -2.328125 C 11.945312 -0.535156 9.378906 0.359375 6.203125 0.359375 Z M 6.203125 0.359375 "/></g></g></g><g fill="#dce61e" fill-opacity="1"><g transform="translate(80.02433, 204.405265)"><g><path d="M 0.578125 0 L 7.78125 -31.1875 L 3.1875 -31.1875 L 4.890625 -38.59375 L 21.796875 -38.59375 L 20.09375 -31.1875 L 15.5 -31.1875 L 8.3125 0 Z M 0.578125 0 "/></g></g></g><g fill="#dce61e" fill-opacity="1"><g transform="translate(97.816481, 204.405265)"><g><path d="M 6.421875 0.359375 C 3.304688 0.359375 1.160156 -0.585938 -0.015625 -2.484375 C -1.203125 -4.390625 -1.390625 -7.066406 -0.578125 -10.515625 L 3.640625 -28.890625 C 4.421875 -32.222656 5.8125 -34.734375 7.8125 -36.421875 C 9.820312 -38.109375 12.382812 -38.953125 15.5 -38.953125 C 18.613281 -38.953125 20.785156 -38.109375 22.015625 -36.421875 C 23.242188 -34.734375 23.472656 -32.222656 22.703125 -28.890625 L 18.46875 -10.515625 C 17.664062 -7.035156 16.234375 -4.351562 14.171875 -2.46875 C 12.117188 -0.582031 9.535156 0.359375 6.421875 0.359375 Z M 8.046875 -6.734375 C 8.734375 -6.734375 9.269531 -7.03125 9.65625 -7.625 C 10.050781 -8.226562 10.367188 -9.070312 10.609375 -10.15625 L 14.96875 -29.03125 C 15.144531 -29.863281 15.1875 -30.539062 15.09375 -31.0625 C 15.007812 -31.59375 14.625 -31.859375 13.9375 -31.859375 C 12.644531 -31.859375 11.773438 -30.882812 11.328125 -28.9375 L 6.96875 -10.109375 C 6.695312 -9.003906 6.628906 -8.164062 6.765625 -7.59375 C 6.898438 -7.019531 7.328125 -6.734375 8.046875 -6.734375 Z M 8.046875 -6.734375 "/></g></g></g><g fill="#dce61e" fill-opacity="1"><g transform="translate(119.652311, 204.405265)"><g><path d="M -2.6875 0 L 6.203125 -38.59375 L 17.984375 -38.59375 L 15.78125 -15.046875 L 24.453125 -38.59375 L 36.3125 -38.59375 L 27.40625 0 L 20.359375 0 L 26.78125 -27.8125 L 15.90625 0 L 8.984375 0 L 10.703125 -27.8125 L 4.265625 0 Z M -2.6875 0 "/></g></g></g><g fill="#dce61e" fill-opacity="1"><g transform="translate(153.169856, 204.405265)"><g><path d="M 6.421875 0.359375 C 3.304688 0.359375 1.160156 -0.585938 -0.015625 -2.484375 C -1.203125 -4.390625 -1.390625 -7.066406 -0.578125 -10.515625 L 3.640625 -28.890625 C 4.421875 -32.222656 5.8125 -34.734375 7.8125 -36.421875 C 9.820312 -38.109375 12.382812 -38.953125 15.5 -38.953125 C 18.613281 -38.953125 20.785156 -38.109375 22.015625 -36.421875 C 23.242188 -34.734375 23.472656 -32.222656 22.703125 -28.890625 L 18.46875 -10.515625 C 17.664062 -7.035156 16.234375 -4.351562 14.171875 -2.46875 C 12.117188 -0.582031 9.535156 0.359375 6.421875 0.359375 Z M 8.046875 -6.734375 C 8.734375 -6.734375 9.269531 -7.03125 9.65625 -7.625 C 10.050781 -8.226562 10.367188 -9.070312 10.609375 -10.15625 L 14.96875 -29.03125 C 15.144531 -29.863281 15.1875 -30.539062 15.09375 -31.0625 C 15.007812 -31.59375 14.625 -31.859375 13.9375 -31.859375 C 12.644531 -31.859375 11.773438 -30.882812 11.328125 -28.9375 L 6.96875 -10.109375 C 6.695312 -9.003906 6.628906 -8.164062 6.765625 -7.59375 C 6.898438 -7.019531 7.328125 -6.734375 8.046875 -6.734375 Z M 8.046875 -6.734375 "/></g></g></g><g fill="#dce61e" fill-opacity="1"><g transform="translate(175.005685, 204.405265)"><g><path d="M 6.203125 -38.59375 L 16.671875 -38.59375 C 19.484375 -38.59375 21.367188 -37.90625 22.328125 -36.53125 C 23.296875 -35.15625 23.421875 -32.910156 22.703125 -29.796875 L 22.296875 -28.09375 C 21.453125 -24.40625 19.625 -22.203125 16.8125 -21.484375 C 18.332031 -21.054688 19.242188 -20.078125 19.546875 -18.546875 C 19.847656 -17.023438 19.710938 -15.007812 19.140625 -12.5 C 18.179688 -8.394531 16.847656 -5.285156 15.140625 -3.171875 C 13.429688 -1.054688 10.976562 0 7.78125 0 L -2.6875 0 Z M 12 -24.09375 C 12.65625 -24.09375 13.15625 -24.335938 13.5 -24.828125 C 13.84375 -25.316406 14.125 -26.015625 14.34375 -26.921875 L 15.234375 -30.78125 C 15.535156 -32.039062 15.128906 -32.671875 14.015625 -32.671875 L 12.40625 -32.671875 L 10.421875 -24.09375 Z M 7.1875 -6.78125 C 9.195312 -6.78125 10.410156 -7.738281 10.828125 -9.65625 L 11.953125 -14.46875 C 12.222656 -15.632812 12.253906 -16.515625 12.046875 -17.109375 C 11.835938 -17.710938 11.296875 -18.015625 10.421875 -18.015625 L 8.984375 -18.015625 L 6.421875 -6.828125 Z M 7.1875 -6.78125 "/></g></g></g><g fill="#dce61e" fill-opacity="1"><g transform="translate(196.526997, 204.405265)"><g><path d="M -3.046875 0 L 5.84375 -38.59375 L 13.296875 -38.59375 L 4.40625 0 Z M -3.046875 0 "/></g></g></g><g fill="#dce61e" fill-opacity="1"><g transform="translate(206.726039, 204.405265)"><g><path d="M -2.6875 0 L 6.203125 -38.59375 L 13.9375 -38.59375 L 6.5625 -6.5625 L 14.515625 -6.5625 L 12.984375 0 Z M -2.6875 0 "/></g></g></g><g fill="#dce61e" fill-opacity="1"><g transform="translate(224.56312, 204.405265)"><g/></g></g><g fill="#dce61e" fill-opacity="1"><g transform="translate(235.076669, 204.405265)"><g><path d="M 6.390625 0.359375 C 2.878906 0.359375 0.550781 -0.507812 -0.59375 -2.25 C -1.75 -3.988281 -1.878906 -6.789062 -0.984375 -10.65625 L -0.140625 -14.421875 L 7.46875 -14.421875 L 6.34375 -9.609375 C 5.894531 -7.691406 6.28125 -6.734375 7.5 -6.734375 C 8.195312 -6.734375 8.726562 -6.9375 9.09375 -7.34375 C 9.46875 -7.75 9.765625 -8.429688 9.984375 -9.390625 C 10.273438 -10.648438 10.359375 -11.691406 10.234375 -12.515625 C 10.117188 -13.335938 9.894531 -14.023438 9.5625 -14.578125 C 9.238281 -15.128906 8.613281 -15.992188 7.6875 -17.171875 L 5.125 -20.484375 C 3.144531 -23.003906 2.5 -25.789062 3.1875 -28.84375 C 3.9375 -32.144531 5.269531 -34.65625 7.1875 -36.375 C 9.101562 -38.09375 11.515625 -38.953125 14.421875 -38.953125 C 17.898438 -38.953125 20.191406 -38.03125 21.296875 -36.1875 C 22.410156 -34.351562 22.503906 -31.472656 21.578125 -27.546875 L 13.703125 -27.546875 L 14.296875 -30.203125 C 14.410156 -30.710938 14.363281 -31.113281 14.15625 -31.40625 C 13.945312 -31.707031 13.585938 -31.859375 13.078125 -31.859375 C 12.484375 -31.859375 11.988281 -31.691406 11.59375 -31.359375 C 11.207031 -31.035156 10.953125 -30.585938 10.828125 -30.015625 C 10.523438 -28.753906 10.945312 -27.453125 12.09375 -26.109375 L 15.59375 -21.796875 C 16.40625 -20.773438 17.050781 -19.804688 17.53125 -18.890625 C 18.007812 -17.984375 18.316406 -16.90625 18.453125 -15.65625 C 18.585938 -14.414062 18.457031 -12.941406 18.0625 -11.234375 C 17.164062 -7.429688 15.796875 -4.546875 13.953125 -2.578125 C 12.109375 -0.617188 9.585938 0.359375 6.390625 0.359375 Z M 6.390625 0.359375 "/></g></g></g><g fill="#dce61e" fill-opacity="1"><g transform="translate(255.789261, 204.405265)"><g><path d="M 6.203125 -38.59375 L 16.40625 -38.59375 C 19.488281 -38.59375 21.457031 -37.597656 22.3125 -35.609375 C 23.164062 -33.617188 23.160156 -30.707031 22.296875 -26.875 C 21.390625 -23.039062 20.128906 -20.148438 18.515625 -18.203125 C 16.898438 -16.253906 14.578125 -15.28125 11.546875 -15.28125 L 8.40625 -15.28125 L 4.90625 0 L -2.6875 0 Z M 10.46875 -22.25 C 11.394531 -22.25 12.113281 -22.421875 12.625 -22.765625 C 13.132812 -23.109375 13.53125 -23.597656 13.8125 -24.234375 C 14.101562 -24.878906 14.398438 -25.800781 14.703125 -27 C 15.054688 -28.625 15.132812 -29.796875 14.9375 -30.515625 C 14.75 -31.234375 14.113281 -31.59375 13.03125 -31.59375 L 12.1875 -31.59375 L 10.015625 -22.25 Z M 10.46875 -22.25 "/></g></g></g><g fill="#dce61e" fill-opacity="1"><g transform="translate(276.996077, 204.405265)"><g><path d="M 6.421875 0.359375 C 3.304688 0.359375 1.160156 -0.585938 -0.015625 -2.484375 C -1.203125 -4.390625 -1.390625 -7.066406 -0.578125 -10.515625 L 3.640625 -28.890625 C 4.421875 -32.222656 5.8125 -34.734375 7.8125 -36.421875 C 9.820312 -38.109375 12.382812 -38.953125 15.5 -38.953125 C 18.613281 -38.953125 20.785156 -38.109375 22.015625 -36.421875 C 23.242188 -34.734375 23.472656 -32.222656 22.703125 -28.890625 L 18.46875 -10.515625 C 17.664062 -7.035156 16.234375 -4.351562 14.171875 -2.46875 C 12.117188 -0.582031 9.535156 0.359375 6.421875 0.359375 Z M 8.046875 -6.734375 C 8.734375 -6.734375 9.269531 -7.03125 9.65625 -7.625 C 10.050781 -8.226562 10.367188 -9.070312 10.609375 -10.15625 L 14.96875 -29.03125 C 15.144531 -29.863281 15.1875 -30.539062 15.09375 -31.0625 C 15.007812 -31.59375 14.625 -31.859375 13.9375 -31.859375 C 12.644531 -31.859375 11.773438 -30.882812 11.328125 -28.9375 L 6.96875 -10.109375 C 6.695312 -9.003906 6.628906 -8.164062 6.765625 -7.59375 C 6.898438 -7.019531 7.328125 -6.734375 8.046875 -6.734375 Z M 8.046875 -6.734375 "/></g></g></g><g fill="#dce61e" fill-opacity="1"><g transform="translate(298.831907, 204.405265)"><g><path d="M 6.203125 -38.59375 L 18.0625 -38.59375 C 19.945312 -38.59375 21.3125 -38.164062 22.15625 -37.3125 C 23 -36.46875 23.421875 -35.269531 23.421875 -33.71875 C 23.421875 -32.175781 23.148438 -30.207031 22.609375 -27.8125 C 22.097656 -25.625 21.414062 -23.914062 20.5625 -22.6875 C 19.707031 -21.457031 18.515625 -20.601562 16.984375 -20.125 C 18.097656 -19.882812 18.8125 -19.300781 19.125 -18.375 C 19.4375 -17.445312 19.414062 -16.191406 19.0625 -14.609375 L 15.59375 0 L 8.046875 0 L 11.5 -15.09375 C 11.769531 -16.175781 11.722656 -16.863281 11.359375 -17.15625 C 11.003906 -17.457031 10.273438 -17.609375 9.171875 -17.609375 L 5.125 0 L -2.6875 0 Z M 12.625 -24.3125 C 13.707031 -24.3125 14.519531 -25.476562 15.0625 -27.8125 C 15.300781 -28.832031 15.425781 -29.597656 15.4375 -30.109375 C 15.445312 -30.617188 15.351562 -30.96875 15.15625 -31.15625 C 14.96875 -31.351562 14.648438 -31.453125 14.203125 -31.453125 L 12.40625 -31.453125 L 10.78125 -24.3125 Z M 12.625 -24.3125 "/></g></g></g><g fill="#dce61e" fill-opacity="1"><g transform="translate(320.263347, 204.405265)"><g><path d="M 0.578125 0 L 7.78125 -31.1875 L 3.1875 -31.1875 L 4.890625 -38.59375 L 21.796875 -38.59375 L 20.09375 -31.1875 L 15.5 -31.1875 L 8.3125 0 Z M 0.578125 0 "/></g></g></g><g fill="#dce61e" fill-opacity="1"><g transform="translate(147.510786, 216.786679)"><g><path d="M 1.390625 0.078125 C 0.765625 0.078125 0.304688 -0.113281 0.015625 -0.5 C -0.273438 -0.894531 -0.335938 -1.4375 -0.171875 -2.125 L 0.734375 -6.09375 C 0.929688 -6.945312 1.25 -7.585938 1.6875 -8.015625 C 2.132812 -8.453125 2.722656 -8.671875 3.453125 -8.671875 C 4.078125 -8.671875 4.539062 -8.492188 4.84375 -8.140625 C 5.15625 -7.796875 5.234375 -7.300781 5.078125 -6.65625 L 4.75 -5.171875 L 3.03125 -5.171875 L 3.328125 -6.4375 C 3.390625 -6.6875 3.398438 -6.859375 3.359375 -6.953125 C 3.328125 -7.046875 3.234375 -7.09375 3.078125 -7.09375 C 2.929688 -7.09375 2.816406 -7.035156 2.734375 -6.921875 C 2.648438 -6.816406 2.582031 -6.660156 2.53125 -6.453125 L 1.53125 -2.15625 C 1.488281 -1.925781 1.484375 -1.757812 1.515625 -1.65625 C 1.554688 -1.550781 1.644531 -1.5 1.78125 -1.5 C 2.050781 -1.5 2.234375 -1.71875 2.328125 -2.15625 L 2.703125 -3.703125 L 4.421875 -3.703125 L 4.0625 -2.078125 C 3.726562 -0.640625 2.835938 0.078125 1.390625 0.078125 Z M 1.390625 0.078125 "/></g></g></g><g fill="#dce61e" fill-opacity="1"><g transform="translate(154.128909, 216.786679)"><g><path d="M 1.640625 0.078125 C 0.179688 0.078125 -0.375 -0.675781 -0.03125 -2.1875 L 0.640625 -5.125 C 0.804688 -5.820312 1.128906 -6.375 1.609375 -6.78125 C 2.085938 -7.195312 2.671875 -7.40625 3.359375 -7.40625 C 4.035156 -7.40625 4.519531 -7.195312 4.8125 -6.78125 C 5.113281 -6.375 5.1875 -5.820312 5.03125 -5.125 L 4.34375 -2.1875 C 4 -0.675781 3.097656 0.078125 1.640625 0.078125 Z M 1.953125 -1.265625 C 2.085938 -1.265625 2.195312 -1.3125 2.28125 -1.40625 C 2.375 -1.507812 2.441406 -1.648438 2.484375 -1.828125 L 3.3125 -5.40625 C 3.40625 -5.832031 3.316406 -6.046875 3.046875 -6.046875 C 2.773438 -6.046875 2.585938 -5.832031 2.484375 -5.40625 L 1.671875 -1.828125 C 1.628906 -1.648438 1.628906 -1.507812 1.671875 -1.40625 C 1.710938 -1.3125 1.804688 -1.265625 1.953125 -1.265625 Z M 1.953125 -1.265625 "/></g></g></g><g fill="#dce61e" fill-opacity="1"><g transform="translate(160.976945, 216.786679)"><g><path d="M 1.203125 -7.3125 L 2.953125 -7.3125 L 2.765625 -6.515625 C 2.921875 -6.796875 3.125 -7.015625 3.375 -7.171875 C 3.625 -7.328125 3.910156 -7.40625 4.234375 -7.40625 L 3.890625 -5.953125 C 3.648438 -5.953125 3.367188 -5.914062 3.046875 -5.84375 C 2.734375 -5.769531 2.570312 -5.6875 2.5625 -5.59375 L 1.25 0 L -0.5 0 Z M 1.203125 -7.3125 "/></g></g></g><g fill="#dce61e" fill-opacity="1"><g transform="translate(166.29558, 216.786679)"><g><path d="M 1.359375 -7.3125 L 3.140625 -7.3125 L 3.0625 -6.9375 C 3.382812 -7.25 3.769531 -7.40625 4.21875 -7.40625 C 4.78125 -7.40625 5.128906 -7.210938 5.265625 -6.828125 C 5.398438 -6.453125 5.394531 -5.925781 5.25 -5.25 L 4.609375 -2.546875 C 4.484375 -1.972656 4.34375 -1.503906 4.1875 -1.140625 C 4.039062 -0.773438 3.828125 -0.476562 3.546875 -0.25 C 3.273438 -0.03125 2.910156 0.078125 2.453125 0.078125 C 2.003906 0.078125 1.695312 -0.046875 1.53125 -0.296875 L 1.125 1.453125 L -0.65625 1.453125 Z M 2.171875 -1.28125 C 2.335938 -1.28125 2.457031 -1.351562 2.53125 -1.5 C 2.613281 -1.644531 2.6875 -1.859375 2.75 -2.140625 L 3.46875 -5.25 C 3.53125 -5.5 3.550781 -5.691406 3.53125 -5.828125 C 3.519531 -5.960938 3.429688 -6.03125 3.265625 -6.03125 C 2.992188 -6.03125 2.796875 -5.773438 2.671875 -5.265625 L 1.9375 -2.0625 C 1.875 -1.8125 1.851562 -1.617188 1.875 -1.484375 C 1.90625 -1.347656 2.003906 -1.28125 2.171875 -1.28125 Z M 2.171875 -1.28125 "/></g></g></g><g fill="#dce61e" fill-opacity="1"><g transform="translate(173.173599, 216.786679)"><g><path d="M 1.640625 0.078125 C 0.179688 0.078125 -0.375 -0.675781 -0.03125 -2.1875 L 0.640625 -5.125 C 0.804688 -5.820312 1.128906 -6.375 1.609375 -6.78125 C 2.085938 -7.195312 2.671875 -7.40625 3.359375 -7.40625 C 4.035156 -7.40625 4.519531 -7.195312 4.8125 -6.78125 C 5.113281 -6.375 5.1875 -5.820312 5.03125 -5.125 L 4.34375 -2.1875 C 4 -0.675781 3.097656 0.078125 1.640625 0.078125 Z M 1.953125 -1.265625 C 2.085938 -1.265625 2.195312 -1.3125 2.28125 -1.40625 C 2.375 -1.507812 2.441406 -1.648438 2.484375 -1.828125 L 3.3125 -5.40625 C 3.40625 -5.832031 3.316406 -6.046875 3.046875 -6.046875 C 2.773438 -6.046875 2.585938 -5.832031 2.484375 -5.40625 L 1.671875 -1.828125 C 1.628906 -1.648438 1.628906 -1.507812 1.671875 -1.40625 C 1.710938 -1.3125 1.804688 -1.265625 1.953125 -1.265625 Z M 1.953125 -1.265625 "/></g></g></g><g fill="#dce61e" fill-opacity="1"><g transform="translate(180.021634, 216.786679)"><g><path d="M 1.203125 -7.3125 L 2.953125 -7.3125 L 2.765625 -6.515625 C 2.921875 -6.796875 3.125 -7.015625 3.375 -7.171875 C 3.625 -7.328125 3.910156 -7.40625 4.234375 -7.40625 L 3.890625 -5.953125 C 3.648438 -5.953125 3.367188 -5.914062 3.046875 -5.84375 C 2.734375 -5.769531 2.570312 -5.6875 2.5625 -5.59375 L 1.25 0 L -0.5 0 Z M 1.203125 -7.3125 "/></g></g></g><g fill="#dce61e" fill-opacity="1"><g transform="translate(185.34027, 216.786679)"><g><path d="M 0.828125 0.078125 C 0.265625 0.078125 -0.078125 -0.109375 -0.203125 -0.484375 C -0.328125 -0.859375 -0.304688 -1.394531 -0.140625 -2.09375 C -0.00390625 -2.664062 0.171875 -3.101562 0.390625 -3.40625 C 0.609375 -3.71875 0.863281 -3.945312 1.15625 -4.09375 C 1.457031 -4.238281 1.90625 -4.394531 2.5 -4.5625 L 3.015625 -4.734375 L 3.015625 -4.75 L 3.1875 -5.484375 C 3.226562 -5.671875 3.222656 -5.816406 3.171875 -5.921875 C 3.117188 -6.023438 3.039062 -6.078125 2.9375 -6.078125 C 2.84375 -6.078125 2.75 -6.03125 2.65625 -5.9375 C 2.570312 -5.851562 2.507812 -5.738281 2.46875 -5.59375 L 2.375 -5.15625 L 0.671875 -5.15625 L 0.71875 -5.40625 C 0.882812 -6.125 1.171875 -6.632812 1.578125 -6.9375 C 1.992188 -7.25 2.578125 -7.40625 3.328125 -7.40625 C 3.941406 -7.40625 4.398438 -7.242188 4.703125 -6.921875 C 5.015625 -6.609375 5.101562 -6.160156 4.96875 -5.578125 L 3.6875 0 L 1.953125 0 L 2.140625 -0.875 C 1.984375 -0.570312 1.789062 -0.335938 1.5625 -0.171875 C 1.332031 -0.00390625 1.085938 0.078125 0.828125 0.078125 Z M 1.828125 -1.28125 C 1.960938 -1.28125 2.070312 -1.332031 2.15625 -1.4375 C 2.238281 -1.550781 2.296875 -1.6875 2.328125 -1.84375 L 2.8125 -3.890625 C 2.53125 -3.785156 2.304688 -3.65625 2.140625 -3.5 C 1.984375 -3.351562 1.875 -3.144531 1.8125 -2.875 L 1.59375 -1.9375 C 1.5 -1.5 1.578125 -1.28125 1.828125 -1.28125 Z M 1.828125 -1.28125 "/></g></g></g><g fill="#dce61e" fill-opacity="1"><g transform="translate(192.048356, 216.786679)"><g><path d="M 0.875 0.078125 C 0.414062 0.078125 0.125 -0.015625 0 -0.203125 C -0.132812 -0.398438 -0.148438 -0.710938 -0.046875 -1.140625 L 1 -5.703125 L 0.515625 -5.703125 L 0.8125 -7.046875 L 1.3125 -7.046875 L 1.671875 -8.59375 L 3.359375 -8.59375 L 3 -7.046875 L 3.5 -7.046875 L 3.203125 -5.703125 L 2.703125 -5.703125 L 1.75 -1.59375 C 1.71875 -1.46875 1.703125 -1.375 1.703125 -1.3125 C 1.710938 -1.257812 1.765625 -1.234375 1.859375 -1.234375 C 1.921875 -1.234375 1.984375 -1.234375 2.046875 -1.234375 C 2.109375 -1.242188 2.148438 -1.25 2.171875 -1.25 L 1.890625 -0.046875 C 1.785156 -0.0234375 1.632812 0 1.4375 0.03125 C 1.238281 0.0625 1.050781 0.078125 0.875 0.078125 Z M 0.875 0.078125 "/></g></g></g><g fill="#dce61e" fill-opacity="1"><g transform="translate(196.977148, 216.786679)"><g><path d="M 1.109375 -7.8125 L 1.390625 -9.03125 L 3.140625 -9.03125 L 2.859375 -7.8125 Z M -0.6875 0 L 1 -7.3125 L 2.75 -7.3125 L 1.0625 0 Z M -0.6875 0 "/></g></g></g><g fill="#dce61e" fill-opacity="1"><g transform="translate(201.286186, 216.786679)"><g><path d="M 1.640625 0.078125 C 0.179688 0.078125 -0.375 -0.675781 -0.03125 -2.1875 L 0.640625 -5.125 C 0.804688 -5.820312 1.128906 -6.375 1.609375 -6.78125 C 2.085938 -7.195312 2.671875 -7.40625 3.359375 -7.40625 C 4.035156 -7.40625 4.519531 -7.195312 4.8125 -6.78125 C 5.113281 -6.375 5.1875 -5.820312 5.03125 -5.125 L 4.34375 -2.1875 C 4 -0.675781 3.097656 0.078125 1.640625 0.078125 Z M 1.953125 -1.265625 C 2.085938 -1.265625 2.195312 -1.3125 2.28125 -1.40625 C 2.375 -1.507812 2.441406 -1.648438 2.484375 -1.828125 L 3.3125 -5.40625 C 3.40625 -5.832031 3.316406 -6.046875 3.046875 -6.046875 C 2.773438 -6.046875 2.585938 -5.832031 2.484375 -5.40625 L 1.671875 -1.828125 C 1.628906 -1.648438 1.628906 -1.507812 1.671875 -1.40625 C 1.710938 -1.3125 1.804688 -1.265625 1.953125 -1.265625 Z M 1.953125 -1.265625 "/></g></g></g><g fill="#dce61e" fill-opacity="1"><g transform="translate(208.134221, 216.786679)"><g><path d="M 1.203125 -7.3125 L 2.953125 -7.3125 L 2.734375 -6.390625 C 2.878906 -6.691406 3.0625 -6.9375 3.28125 -7.125 C 3.5 -7.3125 3.757812 -7.40625 4.0625 -7.40625 C 4.5625 -7.40625 4.894531 -7.25 5.0625 -6.9375 C 5.226562 -6.632812 5.242188 -6.207031 5.109375 -5.65625 L 3.8125 0 L 2.09375 0 L 3.359375 -5.46875 C 3.390625 -5.625 3.382812 -5.757812 3.34375 -5.875 C 3.3125 -5.988281 3.226562 -6.046875 3.09375 -6.046875 C 2.914062 -6.046875 2.78125 -5.960938 2.6875 -5.796875 C 2.59375 -5.640625 2.515625 -5.425781 2.453125 -5.15625 L 1.265625 0 L -0.484375 0 Z M 1.203125 -7.3125 "/></g></g></g><path stroke-linecap="round" transform="matrix(0.749984, -0.00487014, 0.00487014, 0.749984, 226.646224, 212.631447)" fill="none" stroke-linejoin="miter" d="M 2.000428 1.999228 L 145.784716 2.000603 " stroke="#0097b2" stroke-width="4" stroke-opacity="1" stroke-miterlimit="4"/><path stroke-linecap="round" transform="matrix(0.749984, -0.00487014, 0.00487014, 0.749984, 23.146294, 212.991286)" fill="none" stroke-linejoin="miter" d="M 2.000339 1.998609 L 145.784626 1.999983 " stroke="#0097b2" stroke-width="4" stroke-opacity="1" stroke-miterlimit="4"/></svg>