<svg xmlns="http://www.w3.org/2000/svg" xmlns:xlink="http://www.w3.org/1999/xlink" width="500" zoomAndPan="magnify" viewBox="0 0 375 374.999991" height="500" preserveAspectRatio="xMidYMid meet" version="1.0"><defs><clipPath id="a6c893d91e"><path d="M 87.332031 79.171875 L 287.667969 79.171875 L 287.667969 279.503906 L 87.332031 279.503906 Z M 87.332031 79.171875 " clip-rule="nonzero"/></clipPath><clipPath id="047e282d21"><path d="M 187.5 79.171875 C 132.179688 79.171875 87.332031 124.019531 87.332031 179.339844 C 87.332031 234.65625 132.179688 279.503906 187.5 279.503906 C 242.820312 279.503906 287.667969 234.65625 287.667969 179.339844 C 287.667969 124.019531 242.820312 79.171875 187.5 79.171875 Z M 187.5 79.171875 " clip-rule="nonzero"/></clipPath><clipPath id="df48e69787"><path d="M 87.332031 79.171875 L 287.582031 79.171875 L 287.582031 279.421875 L 87.332031 279.421875 Z M 87.332031 79.171875 " clip-rule="nonzero"/></clipPath><clipPath id="d89293a8f1"><path d="M 187.5 79.171875 C 132.179688 79.171875 87.332031 124.019531 87.332031 179.339844 C 87.332031 234.65625 132.179688 279.503906 187.5 279.503906 C 242.820312 279.503906 287.664062 234.65625 287.664062 179.339844 C 287.664062 124.019531 242.820312 79.171875 187.5 79.171875 Z M 187.5 79.171875 " clip-rule="nonzero"/></clipPath><clipPath id="1962700351"><path d="M 100.816406 164.492188 L 274.066406 164.492188 L 274.066406 194.492188 L 100.816406 194.492188 Z M 100.816406 164.492188 " clip-rule="nonzero"/></clipPath></defs><g clip-path="url(#a6c893d91e)"><g clip-path="url(#047e282d21)"><path fill="#ffffff" d="M 87.332031 79.171875 L 287.667969 79.171875 L 287.667969 279.503906 L 87.332031 279.503906 Z M 87.332031 79.171875 " fill-opacity="1" fill-rule="nonzero"/></g></g><g clip-path="url(#df48e69787)"><g clip-path="url(#d89293a8f1)"><path stroke-linecap="butt" transform="matrix(0.75, 0, 0, 0.75, 87.333976, 79.171944)" fill="none" stroke-linejoin="miter" d="M 133.554708 -0.0000914681 C 59.794287 -0.0000914681 -0.00259242 59.796787 -0.00259242 133.557209 C -0.00259242 207.312422 59.794287 267.109301 133.554708 267.109301 C 207.31513 267.109301 267.1068 207.312422 267.1068 133.557209 C 267.1068 59.796787 207.31513 -0.0000914681 133.554708 -0.0000914681 Z M 133.554708 -0.0000914681 " stroke="#268c4a" stroke-width="2" stroke-opacity="1" stroke-miterlimit="4"/></g></g><g clip-path="url(#1962700351)"><path fill="#268c4a" d="M 274.140625 193.261719 C 273.429688 194.882812 256.945312 192.828125 254.761719 192.574219 C 253.589844 192.4375 252.609375 192.324219 251.996094 192.265625 L 251.746094 192.238281 L 251.628906 192.015625 C 250.5 189.808594 248.882812 187.785156 246.574219 186.394531 C 244.261719 185.003906 241.246094 184.242188 237.308594 184.5625 C 234.738281 184.769531 232.628906 185.445312 230.894531 186.425781 C 229.160156 187.410156 227.796875 188.703125 226.722656 190.152344 L 226.578125 190.351562 L 226.328125 190.339844 C 219.898438 189.996094 213.179688 189.734375 206.246094 189.558594 C 199.519531 189.386719 192.53125 189.296875 185.339844 189.296875 C 182.90625 189.296875 180.640625 189.304688 178.535156 189.320312 C 176.195312 189.339844 173.851562 189.371094 171.507812 189.410156 L 171.367188 189.199219 C 170.367188 187.71875 169.570312 186.328125 169.214844 185.277344 C 169.042969 184.765625 168.972656 184.320312 169.023438 183.953125 C 169.085938 183.484375 169.328125 183.152344 169.773438 182.984375 C 169.984375 182.90625 170.238281 182.871094 170.53125 182.886719 C 191.148438 184.011719 198.714844 184.515625 198.71875 184.480469 C 198.726562 184.347656 187.792969 183.574219 175.460938 182.398438 C 168.171875 181.707031 160.402344 180.964844 154.082031 180.304688 L 154.050781 180.300781 C 154.039062 180.296875 150.054688 179.570312 152.769531 183.863281 C 153.230469 184.59375 153.769531 185.417969 154.398438 186.300781 C 155.023438 187.175781 155.734375 188.105469 156.539062 189.050781 L 157.160156 189.777344 L 156.207031 189.8125 C 153.613281 189.90625 151.050781 190.011719 148.519531 190.128906 C 146 190.25 143.507812 190.378906 141.046875 190.523438 L 140.757812 190.539062 L 140.617188 190.289062 C 139.671875 188.601562 138.34375 187.078125 136.488281 185.9375 C 134.621094 184.785156 132.21875 184.019531 129.132812 183.859375 C 124.558594 183.625 121.25 184.671875 118.851562 186.335938 C 116.460938 187.996094 114.964844 190.277344 114.03125 192.519531 L 113.925781 192.769531 L 113.65625 192.800781 C 111.839844 193.007812 110.113281 193.214844 108.480469 193.421875 C 106.851562 193.632812 105.230469 193.855469 103.628906 194.085938 L 103.304688 194.132812 L 103.152344 193.839844 C 102.222656 192.046875 101.335938 189.941406 100.980469 188.136719 C 100.800781 187.214844 100.757812 186.363281 100.910156 185.648438 C 101.078125 184.867188 101.476562 184.253906 102.175781 183.890625 C 102.398438 183.773438 102.652344 183.6875 102.933594 183.632812 C 106.917969 182.851562 107.859375 181.304688 107.535156 179.644531 C 107.195312 177.910156 105.585938 175.980469 104.4375 174.597656 C 103.746094 173.765625 103.203125 173.113281 103.105469 172.683594 L 102.964844 172.046875 L 103.609375 172.121094 C 110.25 172.886719 116.125 173.121094 121.4375 173 C 126.738281 172.878906 131.496094 172.394531 135.902344 171.71875 L 135.976562 171.707031 L 136.0625 171.726562 C 152.164062 174.992188 190.324219 177.933594 210.714844 178.894531 C 214.8125 179.085938 218.183594 179.199219 220.507812 179.21875 C 222.757812 179.238281 223.433594 179.367188 221.609375 178.421875 C 221.304688 178.265625 220.972656 178.0625 220.589844 177.839844 C 211.898438 172.859375 202.800781 170.023438 193.445312 168.828125 C 183.105469 167.507812 172.445312 168.1875 161.667969 170.199219 C 162.0625 170.890625 163.128906 172.308594 165.894531 174.175781 L 167.605469 175.328125 L 165.566406 175.015625 C 163.253906 174.660156 160.910156 174.386719 158.480469 174.101562 C 153.558594 173.523438 148.273438 172.90625 142.1875 171.5 L 140.113281 171.019531 L 142.199219 170.597656 C 145.511719 169.925781 148.714844 169.167969 151.851562 168.425781 C 171.195312 163.847656 188.097656 159.847656 228.429688 177.78125 C 240.1875 177.144531 258.394531 184.234375 267.824219 188.886719 C 269.777344 189.847656 271.355469 190.707031 272.425781 191.371094 C 273.703125 192.167969 274.328125 192.832031 274.140625 193.261719 Z M 271.9375 192.15625 C 270.886719 191.503906 269.335938 190.660156 267.414062 189.714844 C 258.042969 185.089844 239.9375 178.03125 228.371094 178.710938 L 228.261719 178.714844 L 228.15625 178.671875 C 188.039062 160.808594 171.265625 164.78125 152.0625 169.328125 C 149.609375 169.90625 147.113281 170.496094 144.496094 171.058594 C 149.660156 172.136719 154.265625 172.675781 158.585938 173.183594 C 160.386719 173.394531 162.140625 173.597656 163.859375 173.832031 C 160.976562 171.542969 160.5625 169.984375 160.5625 169.980469 L 160.425781 169.496094 L 160.921875 169.402344 C 171.980469 167.289062 182.929688 166.554688 193.558594 167.910156 C 204.203125 169.273438 214.515625 172.730469 224.28125 179.003906 C 224.402344 179.082031 224.480469 179.179688 224.519531 179.296875 C 224.722656 179.894531 223.253906 180.164062 220.5 180.140625 C 218.148438 180.121094 214.761719 180.007812 210.671875 179.816406 C 190.292969 178.855469 152.167969 175.914062 135.964844 172.644531 C 131.558594 173.320312 126.789062 173.800781 121.453125 173.921875 C 116.648438 174.03125 111.398438 173.851562 105.554688 173.261719 C 104.230469 173.128906 104.277344 172.964844 105.144531 174.007812 C 106.359375 175.46875 108.054688 177.503906 108.441406 179.464844 C 108.867188 181.632812 107.796875 183.621094 103.113281 184.539062 C 102.914062 184.578125 102.746094 184.636719 102.597656 184.710938 C 102.171875 184.933594 101.925781 185.328125 101.816406 185.839844 C 101.6875 186.425781 101.730469 187.152344 101.890625 187.957031 C 102.207031 189.578125 102.984375 191.464844 103.824219 193.125 C 105.257812 192.917969 106.773438 192.714844 108.367188 192.507812 C 109.996094 192.300781 111.636719 192.101562 113.285156 191.914062 C 114.285156 189.613281 115.855469 187.292969 118.324219 185.578125 C 120.878906 183.804688 124.378906 182.691406 129.179688 182.9375 C 132.433594 183.109375 134.984375 183.921875 136.972656 185.148438 C 138.882812 186.324219 140.273438 187.871094 141.277344 189.585938 C 143.621094 189.449219 146.023438 189.324219 148.476562 189.207031 C 150.691406 189.105469 152.945312 189.011719 155.234375 188.925781 C 154.652344 188.207031 154.125 187.507812 153.644531 186.835938 C 153.007812 185.941406 152.457031 185.097656 151.988281 184.355469 C 148.210938 178.386719 153.996094 179.351562 154.203125 179.386719 C 160.589844 180.054688 168.308594 180.792969 175.550781 181.480469 C 188.347656 182.703125 200.46875 184.167969 199.640625 184.527344 C 199.035156 184.859375 191.773438 184.96875 170.484375 183.808594 C 170.316406 183.800781 170.1875 183.8125 170.097656 183.847656 C 170.003906 183.882812 169.953125 183.960938 169.9375 184.078125 C 169.90625 184.296875 169.964844 184.605469 170.089844 184.984375 C 170.375 185.828125 170.988281 186.9375 171.777344 188.152344 C 172.078125 188.609375 172.074219 188.476562 172.648438 188.46875 C 174.589844 188.4375 176.550781 188.417969 178.53125 188.398438 C 180.929688 188.378906 183.199219 188.371094 185.339844 188.371094 C 192.449219 188.371094 199.449219 188.460938 206.269531 188.636719 C 213.148438 188.808594 219.789062 189.070312 226.132812 189.402344 C 227.253906 187.9375 228.664062 186.628906 230.4375 185.625 C 232.285156 184.578125 234.523438 183.859375 237.234375 183.640625 C 241.382812 183.300781 244.582031 184.117188 247.050781 185.601562 C 249.445312 187.042969 251.136719 189.109375 252.335938 191.371094 C 253.019531 191.441406 253.871094 191.539062 254.867188 191.65625 C 256.050781 191.792969 276.121094 194.757812 271.9375 192.15625 Z M 271.9375 192.15625 " fill-opacity="1" fill-rule="nonzero"/></g></svg>