<svg xmlns="http://www.w3.org/2000/svg" xmlns:xlink="http://www.w3.org/1999/xlink" width="500" zoomAndPan="magnify" viewBox="0 0 375 374.999991" height="500" preserveAspectRatio="xMidYMid meet" version="1.0"><defs><g/><clipPath id="8ad3814aff"><path d="M 100.816406 152.171875 L 274.066406 152.171875 L 274.066406 182 L 100.816406 182 Z M 100.816406 152.171875 " clip-rule="nonzero"/></clipPath></defs><g clip-path="url(#8ad3814aff)"><path fill="#268c4a" d="M 274.140625 180.9375 C 273.429688 182.5625 256.945312 180.503906 254.761719 180.25 C 253.589844 180.117188 252.609375 180.003906 251.996094 179.941406 L 251.746094 179.917969 L 251.628906 179.691406 C 250.5 177.488281 248.882812 175.460938 246.574219 174.074219 C 244.261719 172.679688 241.246094 171.917969 237.308594 172.238281 C 234.738281 172.449219 232.628906 173.121094 230.894531 174.105469 C 229.160156 175.085938 227.796875 176.378906 226.722656 177.828125 L 226.578125 178.027344 L 226.328125 178.015625 C 219.898438 177.675781 213.179688 177.410156 206.246094 177.234375 C 199.519531 177.0625 192.53125 176.972656 185.339844 176.972656 C 182.90625 176.972656 180.640625 176.984375 178.535156 177 C 176.195312 177.019531 173.851562 177.046875 171.507812 177.085938 L 171.367188 176.878906 C 170.367188 175.394531 169.570312 174.007812 169.214844 172.953125 C 169.042969 172.445312 168.972656 171.996094 169.023438 171.628906 C 169.085938 171.164062 169.328125 170.828125 169.773438 170.660156 C 169.984375 170.582031 170.238281 170.546875 170.53125 170.566406 C 191.148438 171.6875 198.714844 172.195312 198.71875 172.160156 C 198.726562 172.023438 187.792969 171.253906 175.460938 170.078125 C 168.171875 169.382812 160.402344 168.640625 154.082031 167.980469 L 154.050781 167.976562 C 154.039062 167.976562 150.054688 167.25 152.769531 171.542969 C 153.230469 172.269531 153.769531 173.097656 154.398438 173.976562 C 155.023438 174.855469 155.734375 175.785156 156.539062 176.726562 L 157.160156 177.453125 L 156.207031 177.488281 C 153.613281 177.582031 151.050781 177.6875 148.519531 177.808594 C 146 177.925781 143.507812 178.058594 141.046875 178.199219 L 140.757812 178.21875 L 140.617188 177.964844 C 139.671875 176.28125 138.34375 174.753906 136.488281 173.613281 C 134.621094 172.464844 132.21875 171.699219 129.132812 171.539062 C 124.558594 171.300781 121.25 172.347656 118.851562 174.011719 C 116.460938 175.671875 114.964844 177.957031 114.03125 180.195312 L 113.925781 180.449219 L 113.65625 180.480469 C 111.839844 180.683594 110.113281 180.890625 108.480469 181.101562 C 106.851562 181.308594 105.230469 181.53125 103.628906 181.765625 L 103.304688 181.8125 L 103.152344 181.519531 C 102.222656 179.722656 101.335938 177.621094 100.980469 175.8125 C 100.800781 174.894531 100.757812 174.039062 100.910156 173.328125 C 101.078125 172.542969 101.476562 171.929688 102.175781 171.570312 C 102.398438 171.453125 102.652344 171.363281 102.933594 171.308594 C 106.917969 170.527344 107.859375 168.980469 107.535156 167.320312 C 107.195312 165.585938 105.585938 163.65625 104.4375 162.273438 C 103.746094 161.441406 103.203125 160.792969 103.105469 160.359375 L 102.964844 159.726562 L 103.609375 159.800781 C 110.25 160.5625 116.125 160.800781 121.4375 160.679688 C 126.738281 160.554688 131.496094 160.074219 135.902344 159.398438 L 135.976562 159.386719 L 136.0625 159.402344 C 152.164062 162.667969 190.324219 165.613281 210.714844 166.570312 C 214.8125 166.765625 218.183594 166.878906 220.507812 166.898438 C 222.757812 166.914062 223.433594 167.042969 221.609375 166.097656 C 221.304688 165.941406 220.972656 165.738281 220.589844 165.519531 C 211.898438 160.539062 202.800781 157.699219 193.445312 156.503906 C 183.105469 155.183594 172.445312 155.867188 161.667969 157.878906 C 162.0625 158.570312 163.128906 159.984375 165.894531 161.851562 L 167.605469 163.007812 L 165.566406 162.691406 C 163.253906 162.335938 160.910156 162.0625 158.480469 161.777344 C 153.558594 161.203125 148.273438 160.582031 142.1875 159.175781 L 140.113281 158.695312 L 142.199219 158.273438 C 145.511719 157.605469 148.714844 156.847656 151.851562 156.101562 C 171.195312 151.523438 188.097656 147.523438 228.429688 165.460938 C 240.1875 164.824219 258.394531 171.914062 267.824219 176.5625 C 269.777344 177.527344 271.355469 178.382812 272.425781 179.050781 C 273.703125 179.84375 274.328125 180.511719 274.140625 180.9375 Z M 271.9375 179.835938 C 270.886719 179.183594 269.335938 178.339844 267.414062 177.390625 C 258.042969 172.769531 239.9375 165.710938 228.371094 166.386719 L 228.261719 166.394531 L 228.15625 166.347656 C 188.039062 148.488281 171.265625 152.457031 152.0625 157.003906 C 149.609375 157.585938 147.113281 158.175781 144.496094 158.738281 C 149.660156 159.816406 154.265625 160.355469 158.585938 160.859375 C 160.386719 161.070312 162.140625 161.277344 163.859375 161.511719 C 160.976562 159.222656 160.5625 157.664062 160.5625 157.65625 L 160.425781 157.171875 L 160.921875 157.078125 C 171.980469 154.96875 182.929688 154.230469 193.558594 155.589844 C 204.203125 156.949219 214.515625 160.40625 224.28125 166.679688 C 224.402344 166.757812 224.480469 166.855469 224.519531 166.976562 C 224.722656 167.574219 223.253906 167.84375 220.5 167.820312 C 218.148438 167.800781 214.761719 167.6875 210.671875 167.496094 C 190.292969 166.535156 152.167969 163.59375 135.964844 160.324219 C 131.558594 160.996094 126.789062 161.476562 121.453125 161.601562 C 116.648438 161.710938 111.398438 161.53125 105.554688 160.941406 C 104.230469 160.804688 104.277344 160.640625 105.144531 161.683594 C 106.359375 163.144531 108.054688 165.183594 108.441406 167.144531 C 108.867188 169.308594 107.796875 171.296875 103.113281 172.21875 C 102.914062 172.253906 102.746094 172.3125 102.597656 172.390625 C 102.171875 172.609375 101.925781 173.003906 101.816406 173.519531 C 101.6875 174.101562 101.730469 174.832031 101.890625 175.636719 C 102.207031 177.253906 102.984375 179.140625 103.824219 180.800781 C 105.257812 180.597656 106.773438 180.390625 108.367188 180.1875 C 109.996094 179.976562 111.636719 179.777344 113.285156 179.589844 C 114.285156 177.292969 115.855469 174.96875 118.324219 173.253906 C 120.878906 171.480469 124.378906 170.367188 129.179688 170.617188 C 132.433594 170.785156 134.984375 171.601562 136.972656 172.824219 C 138.882812 174 140.273438 175.546875 141.277344 177.261719 C 143.621094 177.125 146.023438 177 148.476562 176.886719 C 150.691406 176.78125 152.945312 176.6875 155.234375 176.601562 C 154.652344 175.886719 154.125 175.183594 153.644531 174.511719 C 153.007812 173.617188 152.457031 172.777344 151.988281 172.035156 C 148.210938 166.0625 153.996094 167.027344 154.203125 167.066406 C 160.589844 167.734375 168.308594 168.46875 175.550781 169.160156 C 188.347656 170.378906 200.46875 171.84375 199.640625 172.207031 C 199.035156 172.535156 191.773438 172.648438 170.484375 171.488281 C 170.316406 171.476562 170.1875 171.492188 170.097656 171.523438 C 170.003906 171.558594 169.953125 171.640625 169.9375 171.757812 C 169.90625 171.976562 169.964844 172.285156 170.089844 172.660156 C 170.375 173.503906 170.988281 174.613281 171.777344 175.828125 C 172.078125 176.289062 172.074219 176.15625 172.648438 176.144531 C 174.589844 176.117188 176.550781 176.09375 178.53125 176.078125 C 180.929688 176.058594 183.199219 176.046875 185.339844 176.046875 C 192.449219 176.046875 199.449219 176.140625 206.269531 176.3125 C 213.148438 176.488281 219.789062 176.746094 226.132812 177.082031 C 227.253906 175.613281 228.664062 174.308594 230.4375 173.300781 C 232.285156 172.253906 234.523438 171.539062 237.234375 171.316406 C 241.382812 170.980469 244.582031 171.792969 247.050781 173.28125 C 249.445312 174.722656 251.136719 176.789062 252.335938 179.046875 C 253.019531 179.121094 253.871094 179.21875 254.867188 179.332031 C 256.050781 179.46875 276.121094 182.433594 271.9375 179.835938 Z M 271.9375 179.835938 " fill-opacity="1" fill-rule="nonzero"/></g><g fill="#268c4a" fill-opacity="1"><g transform="translate(91.880924, 209.670572)"><g><path d="M 15.484375 0 L 15.484375 -19.609375 L 0.765625 -19.609375 L 0.765625 0 L 5.671875 0 L 5.671875 -5.46875 L 10.578125 -5.46875 L 10.578125 0 Z M 10.578125 -9.9375 L 5.671875 -9.9375 L 5.671875 -15.109375 L 10.578125 -15.109375 Z M 10.578125 -9.9375 "/></g></g></g><g fill="#268c4a" fill-opacity="1"><g transform="translate(113.865538, 209.670572)"><g><path d="M 15.484375 0 L 15.484375 -19.609375 L 10.578125 -19.609375 L 10.578125 -4.46875 L 5.671875 -4.46875 L 5.671875 -19.609375 L 0.765625 -19.609375 L 0.765625 0 Z M 15.484375 0 "/></g></g></g><g fill="#268c4a" fill-opacity="1"><g transform="translate(135.850151, 209.670572)"><g><path d="M 15.171875 -15.109375 L 15.171875 -19.609375 L 0.4375 -19.609375 L 0.4375 -15.109375 L 5.375 -15.109375 L 5.375 0 L 10.28125 0 L 10.28125 -15.109375 Z M 15.171875 -15.109375 "/></g></g></g><g fill="#268c4a" fill-opacity="1"><g transform="translate(157.188174, 209.670572)"><g><path d="M 15.484375 0 L 15.484375 -19.609375 L 0.765625 -19.609375 L 0.765625 0 Z M 10.578125 -4.46875 L 5.671875 -4.46875 L 5.671875 -15.109375 L 10.578125 -15.109375 Z M 10.578125 -4.46875 "/></g></g></g><g fill="#268c4a" fill-opacity="1"><g transform="translate(179.172788, 209.670572)"><g><path d="M 15.484375 0 L 15.484375 -4.46875 L 5.671875 -4.46875 L 5.671875 -15.109375 L 15.484375 -15.109375 L 15.484375 -19.609375 L 0.765625 -19.609375 L 0.765625 0 Z M 15.484375 0 "/></g></g></g><g fill="#268c4a" fill-opacity="1"><g transform="translate(200.98106, 209.670572)"><g><path d="M 15.484375 0 L 15.484375 -19.609375 L 0.765625 -19.609375 L 0.765625 0 L 5.671875 0 L 5.671875 -5.46875 L 10.578125 -5.46875 L 10.578125 0 Z M 10.578125 -9.9375 L 5.671875 -9.9375 L 5.671875 -15.109375 L 10.578125 -15.109375 Z M 10.578125 -9.9375 "/></g></g></g><g fill="#268c4a" fill-opacity="1"><g transform="translate(222.965674, 209.670572)"><g><path d="M 15.484375 0 L 12.609375 -5.46875 L 15.484375 -5.46875 L 15.484375 -19.609375 L 0.765625 -19.609375 L 0.765625 0 L 5.671875 0 L 5.671875 -5.46875 L 7.78125 -5.46875 L 10.578125 0 Z M 10.578125 -9.9375 L 5.671875 -9.9375 L 5.671875 -15.109375 L 10.578125 -15.109375 Z M 10.578125 -9.9375 "/></g></g></g><g fill="#268c4a" fill-opacity="1"><g transform="translate(244.950287, 209.670572)"><g><path d="M 15.4375 0 L 15.4375 -4.46875 L 5.671875 -4.46875 L 5.671875 -7.703125 L 15.4375 -7.703125 L 15.4375 -12.015625 L 5.671875 -12.015625 L 5.671875 -15.109375 L 15.4375 -15.109375 L 15.4375 -19.609375 L 0.765625 -19.609375 L 0.765625 0 Z M 15.4375 0 "/></g></g></g><g fill="#dce61e" fill-opacity="1"><g transform="translate(266.87701, 209.670572)"><g><path d="M 15.484375 -7.703125 L 15.484375 -12.015625 L 10.578125 -12.015625 L 10.578125 -16.921875 L 5.671875 -16.921875 L 5.671875 -12.015625 L 0.765625 -12.015625 L 0.765625 -7.703125 L 5.671875 -7.703125 L 5.671875 -2.796875 L 10.578125 -2.796875 L 10.578125 -7.703125 Z M 15.484375 -7.703125 "/></g></g></g></svg>