<svg xmlns="http://www.w3.org/2000/svg" xmlns:xlink="http://www.w3.org/1999/xlink" width="500" zoomAndPan="magnify" viewBox="0 0 375 374.999991" height="500" preserveAspectRatio="xMidYMid meet" version="1.0"><defs><g/><clipPath id="22a8aeb05d"><path d="M 100.816406 152.171875 L 274.066406 152.171875 L 274.066406 182.171875 L 100.816406 182.171875 Z M 100.816406 152.171875 " clip-rule="nonzero"/></clipPath></defs><g clip-path="url(#22a8aeb05d)"><path fill="#ffffff" d="M 274.035156 181.246094 C 273.324219 182.886719 256.847656 180.804688 254.667969 180.550781 C 253.496094 180.414062 252.519531 180.300781 251.902344 180.238281 L 251.652344 180.210938 L 251.539062 179.984375 C 250.410156 177.757812 248.792969 175.710938 246.484375 174.304688 C 244.175781 172.898438 241.160156 172.128906 237.222656 172.453125 C 234.65625 172.664062 232.546875 173.34375 230.8125 174.339844 C 229.082031 175.332031 227.71875 176.636719 226.648438 178.101562 L 226.5 178.304688 L 226.253906 178.292969 C 219.824219 177.945312 213.113281 177.679688 206.183594 177.503906 C 199.460938 177.328125 192.476562 177.238281 185.289062 177.238281 C 182.855469 177.238281 180.59375 177.246094 178.488281 177.265625 C 176.148438 177.285156 173.804688 177.3125 171.464844 177.351562 L 171.324219 177.140625 C 170.324219 175.640625 169.527344 174.238281 169.171875 173.175781 C 169.003906 172.660156 168.929688 172.207031 168.980469 171.839844 C 169.046875 171.367188 169.285156 171.027344 169.734375 170.859375 C 169.941406 170.777344 170.195312 170.746094 170.492188 170.761719 C 191.09375 171.898438 198.65625 172.40625 198.660156 172.371094 C 198.667969 172.234375 187.742188 171.457031 175.417969 170.269531 C 168.132812 169.566406 160.363281 168.816406 154.050781 168.148438 L 154.019531 168.144531 C 154.007812 168.144531 150.023438 167.410156 152.738281 171.75 C 153.195312 172.484375 153.738281 173.320312 154.363281 174.210938 C 154.988281 175.09375 155.703125 176.035156 156.507812 176.988281 L 157.128906 177.722656 L 156.171875 177.757812 C 153.582031 177.855469 151.019531 177.960938 148.488281 178.082031 C 145.972656 178.199219 143.480469 178.332031 141.019531 178.476562 L 140.734375 178.496094 L 140.59375 178.242188 C 139.648438 176.535156 138.320312 174.996094 136.464844 173.84375 C 134.601562 172.679688 132.199219 171.90625 129.113281 171.746094 C 124.546875 171.507812 121.234375 172.5625 118.839844 174.246094 C 116.449219 175.921875 114.957031 178.230469 114.023438 180.496094 L 113.917969 180.75 L 113.648438 180.78125 C 111.832031 180.988281 110.109375 181.199219 108.476562 181.410156 C 106.847656 181.621094 105.230469 181.84375 103.625 182.082031 L 103.300781 182.128906 L 103.148438 181.832031 C 102.222656 180.019531 101.335938 177.890625 100.980469 176.066406 C 100.800781 175.136719 100.757812 174.273438 100.910156 173.550781 C 101.078125 172.761719 101.476562 172.140625 102.175781 171.773438 C 102.398438 171.65625 102.652344 171.570312 102.933594 171.511719 C 106.914062 170.722656 107.855469 169.160156 107.53125 167.480469 C 107.191406 165.730469 105.585938 163.777344 104.433594 162.382812 C 103.742188 161.542969 103.203125 160.882812 103.105469 160.449219 L 102.964844 159.808594 L 103.609375 159.882812 C 110.246094 160.652344 116.117188 160.890625 121.421875 160.769531 C 126.722656 160.644531 131.476562 160.15625 135.878906 159.472656 L 135.957031 159.460938 L 136.039062 159.480469 C 152.132812 162.78125 190.273438 165.753906 210.648438 166.726562 C 214.742188 166.921875 218.113281 167.035156 220.4375 167.054688 C 222.683594 167.074219 223.355469 167.203125 221.535156 166.246094 C 221.230469 166.089844 220.898438 165.882812 220.515625 165.660156 C 211.832031 160.628906 202.738281 157.757812 193.386719 156.550781 C 183.054688 155.214844 172.402344 155.90625 161.632812 157.9375 C 162.023438 158.636719 163.089844 160.066406 165.855469 161.957031 L 167.5625 163.121094 L 165.527344 162.804688 C 163.214844 162.445312 160.875 162.167969 158.445312 161.878906 C 153.527344 161.296875 148.242188 160.671875 142.164062 159.25 L 140.089844 158.765625 L 142.175781 158.339844 C 145.488281 157.664062 148.6875 156.894531 151.820312 156.144531 C 171.152344 151.515625 188.042969 147.472656 228.355469 165.601562 C 240.101562 164.957031 258.296875 172.125 267.722656 176.824219 C 269.671875 177.796875 271.25 178.664062 272.320312 179.335938 C 273.597656 180.136719 274.222656 180.8125 274.035156 181.246094 Z M 271.832031 180.128906 C 270.785156 179.46875 269.234375 178.617188 267.3125 177.660156 C 257.945312 172.988281 239.851562 165.855469 228.292969 166.539062 L 228.183594 166.546875 L 228.082031 166.5 C 187.984375 148.449219 171.222656 152.460938 152.03125 157.054688 C 149.578125 157.640625 147.085938 158.238281 144.46875 158.808594 C 149.628906 159.898438 154.230469 160.441406 158.550781 160.953125 C 160.351562 161.164062 162.105469 161.375 163.824219 161.609375 C 160.941406 159.296875 160.527344 157.722656 160.527344 157.714844 L 160.390625 157.226562 L 160.882812 157.132812 C 171.9375 154.996094 182.878906 154.253906 193.503906 155.625 C 204.140625 157 214.445312 160.496094 224.207031 166.835938 C 224.324219 166.914062 224.40625 167.011719 224.445312 167.132812 C 224.648438 167.738281 223.179688 168.007812 220.429688 167.984375 C 218.078125 167.964844 214.695312 167.851562 210.605469 167.65625 C 190.238281 166.6875 152.136719 163.714844 135.941406 160.410156 C 131.539062 161.089844 126.773438 161.574219 121.441406 161.699219 C 116.640625 161.8125 111.390625 161.628906 105.550781 161.035156 C 104.230469 160.898438 104.277344 160.730469 105.144531 161.785156 C 106.355469 163.261719 108.050781 165.320312 108.4375 167.304688 C 108.859375 169.492188 107.789062 171.503906 103.109375 172.429688 C 102.914062 172.46875 102.742188 172.527344 102.597656 172.605469 C 102.171875 172.828125 101.925781 173.226562 101.8125 173.746094 C 101.6875 174.335938 101.730469 175.070312 101.886719 175.886719 C 102.207031 177.519531 102.980469 179.429688 103.820312 181.109375 C 105.253906 180.898438 106.769531 180.691406 108.359375 180.484375 C 109.992188 180.273438 111.632812 180.074219 113.277344 179.882812 C 114.273438 177.558594 115.847656 175.210938 118.316406 173.480469 C 120.867188 171.6875 124.363281 170.5625 129.160156 170.8125 C 132.414062 170.984375 134.960938 171.808594 136.949219 173.046875 C 138.859375 174.234375 140.25 175.796875 141.253906 177.53125 C 143.59375 177.394531 145.996094 177.265625 148.449219 177.148438 C 150.660156 177.042969 152.914062 176.949219 155.203125 176.863281 C 154.621094 176.140625 154.09375 175.429688 153.613281 174.75 C 152.976562 173.847656 152.425781 172.996094 151.957031 172.246094 C 148.183594 166.210938 153.964844 167.1875 154.167969 167.222656 C 160.550781 167.898438 168.265625 168.644531 175.503906 169.339844 C 188.296875 170.574219 200.410156 172.054688 199.582031 172.417969 C 198.976562 172.753906 191.71875 172.867188 170.441406 171.691406 C 170.273438 171.683594 170.144531 171.695312 170.054688 171.730469 C 169.960938 171.765625 169.910156 171.847656 169.894531 171.964844 C 169.863281 172.1875 169.921875 172.496094 170.046875 172.878906 C 170.332031 173.734375 170.945312 174.851562 171.734375 176.082031 C 172.035156 176.546875 172.027344 176.410156 172.605469 176.402344 C 174.546875 176.371094 176.507812 176.347656 178.480469 176.332031 C 180.878906 176.3125 183.148438 176.300781 185.289062 176.300781 C 192.394531 176.300781 199.386719 176.394531 206.207031 176.570312 C 213.078125 176.746094 219.714844 177.007812 226.054688 177.347656 C 227.175781 175.863281 228.585938 174.542969 230.359375 173.527344 C 232.207031 172.46875 234.445312 171.742188 237.152344 171.523438 C 241.296875 171.179688 244.496094 172.003906 246.960938 173.503906 C 249.355469 174.960938 251.046875 177.050781 252.242188 179.335938 C 252.929688 179.40625 253.777344 179.507812 254.773438 179.621094 C 255.957031 179.761719 276.015625 182.757812 271.832031 180.128906 Z M 271.832031 180.128906 " fill-opacity="1" fill-rule="nonzero"/></g><g fill="#ffffff" fill-opacity="1"><g transform="translate(91.880924, 209.670572)"><g><path d="M 15.484375 0 L 15.484375 -19.609375 L 0.765625 -19.609375 L 0.765625 0 L 5.671875 0 L 5.671875 -5.46875 L 10.578125 -5.46875 L 10.578125 0 Z M 10.578125 -9.9375 L 5.671875 -9.9375 L 5.671875 -15.109375 L 10.578125 -15.109375 Z M 10.578125 -9.9375 "/></g></g></g><g fill="#ffffff" fill-opacity="1"><g transform="translate(113.865538, 209.670572)"><g><path d="M 15.484375 0 L 15.484375 -19.609375 L 10.578125 -19.609375 L 10.578125 -4.46875 L 5.671875 -4.46875 L 5.671875 -19.609375 L 0.765625 -19.609375 L 0.765625 0 Z M 15.484375 0 "/></g></g></g><g fill="#ffffff" fill-opacity="1"><g transform="translate(135.850151, 209.670572)"><g><path d="M 15.171875 -15.109375 L 15.171875 -19.609375 L 0.4375 -19.609375 L 0.4375 -15.109375 L 5.375 -15.109375 L 5.375 0 L 10.28125 0 L 10.28125 -15.109375 Z M 15.171875 -15.109375 "/></g></g></g><g fill="#ffffff" fill-opacity="1"><g transform="translate(157.188174, 209.670572)"><g><path d="M 15.484375 0 L 15.484375 -19.609375 L 0.765625 -19.609375 L 0.765625 0 Z M 10.578125 -4.46875 L 5.671875 -4.46875 L 5.671875 -15.109375 L 10.578125 -15.109375 Z M 10.578125 -4.46875 "/></g></g></g><g fill="#ffffff" fill-opacity="1"><g transform="translate(179.172788, 209.670572)"><g><path d="M 15.484375 0 L 15.484375 -4.46875 L 5.671875 -4.46875 L 5.671875 -15.109375 L 15.484375 -15.109375 L 15.484375 -19.609375 L 0.765625 -19.609375 L 0.765625 0 Z M 15.484375 0 "/></g></g></g><g fill="#ffffff" fill-opacity="1"><g transform="translate(200.98106, 209.670572)"><g><path d="M 15.484375 0 L 15.484375 -19.609375 L 0.765625 -19.609375 L 0.765625 0 L 5.671875 0 L 5.671875 -5.46875 L 10.578125 -5.46875 L 10.578125 0 Z M 10.578125 -9.9375 L 5.671875 -9.9375 L 5.671875 -15.109375 L 10.578125 -15.109375 Z M 10.578125 -9.9375 "/></g></g></g><g fill="#ffffff" fill-opacity="1"><g transform="translate(222.965674, 209.670572)"><g><path d="M 15.484375 0 L 12.609375 -5.46875 L 15.484375 -5.46875 L 15.484375 -19.609375 L 0.765625 -19.609375 L 0.765625 0 L 5.671875 0 L 5.671875 -5.46875 L 7.78125 -5.46875 L 10.578125 0 Z M 10.578125 -9.9375 L 5.671875 -9.9375 L 5.671875 -15.109375 L 10.578125 -15.109375 Z M 10.578125 -9.9375 "/></g></g></g><g fill="#ffffff" fill-opacity="1"><g transform="translate(244.950287, 209.670572)"><g><path d="M 15.4375 0 L 15.4375 -4.46875 L 5.671875 -4.46875 L 5.671875 -7.703125 L 15.4375 -7.703125 L 15.4375 -12.015625 L 5.671875 -12.015625 L 5.671875 -15.109375 L 15.4375 -15.109375 L 15.4375 -19.609375 L 0.765625 -19.609375 L 0.765625 0 Z M 15.4375 0 "/></g></g></g><g fill="#ffffff" fill-opacity="1"><g transform="translate(266.876113, 209.670572)"><g><path d="M 15.484375 -7.703125 L 15.484375 -12.015625 L 10.578125 -12.015625 L 10.578125 -16.921875 L 5.671875 -16.921875 L 5.671875 -12.015625 L 0.765625 -12.015625 L 0.765625 -7.703125 L 5.671875 -7.703125 L 5.671875 -2.796875 L 10.578125 -2.796875 L 10.578125 -7.703125 Z M 15.484375 -7.703125 "/></g></g></g></svg>