<svg xmlns="http://www.w3.org/2000/svg" xmlns:xlink="http://www.w3.org/1999/xlink" width="500" zoomAndPan="magnify" viewBox="0 0 375 374.999991" height="500" preserveAspectRatio="xMidYMid meet" version="1.0"><defs><g/><clipPath id="98d60f526a"><path d="M 100.816406 152.171875 L 274.066406 152.171875 L 274.066406 182 L 100.816406 182 Z M 100.816406 152.171875 " clip-rule="nonzero"/></clipPath></defs><g clip-path="url(#98d60f526a)"><path fill="#268c4a" d="M 274.140625 180.9375 C 273.429688 182.5625 256.945312 180.503906 254.761719 180.25 C 253.589844 180.117188 252.609375 180.003906 251.996094 179.941406 L 251.746094 179.917969 L 251.628906 179.691406 C 250.5 177.488281 248.882812 175.464844 246.574219 174.074219 C 244.261719 172.679688 241.246094 171.917969 237.308594 172.238281 C 234.738281 172.449219 232.628906 173.121094 230.894531 174.105469 C 229.160156 175.085938 227.796875 176.378906 226.722656 177.828125 L 226.578125 178.027344 L 226.328125 178.015625 C 219.898438 177.675781 213.179688 177.410156 206.246094 177.234375 C 199.519531 177.0625 192.53125 176.972656 185.339844 176.972656 C 182.90625 176.972656 180.640625 176.984375 178.535156 177 C 176.195312 177.019531 173.851562 177.046875 171.507812 177.085938 L 171.367188 176.878906 C 170.367188 175.394531 169.570312 174.007812 169.214844 172.953125 C 169.042969 172.445312 168.972656 171.996094 169.023438 171.628906 C 169.085938 171.164062 169.328125 170.828125 169.773438 170.660156 C 169.984375 170.582031 170.238281 170.546875 170.53125 170.566406 C 191.148438 171.6875 198.714844 172.195312 198.71875 172.160156 C 198.726562 172.023438 187.792969 171.253906 175.460938 170.078125 C 168.171875 169.382812 160.402344 168.640625 154.082031 167.980469 L 154.050781 167.976562 C 154.039062 167.976562 150.054688 167.25 152.769531 171.542969 C 153.230469 172.269531 153.769531 173.097656 154.398438 173.976562 C 155.023438 174.855469 155.734375 175.785156 156.539062 176.726562 L 157.160156 177.453125 L 156.207031 177.488281 C 153.613281 177.582031 151.050781 177.691406 148.519531 177.808594 C 146 177.925781 143.507812 178.058594 141.046875 178.199219 L 140.757812 178.21875 L 140.617188 177.964844 C 139.671875 176.28125 138.34375 174.753906 136.488281 173.613281 C 134.621094 172.464844 132.21875 171.699219 129.132812 171.539062 C 124.558594 171.300781 121.25 172.347656 118.851562 174.011719 C 116.460938 175.671875 114.964844 177.957031 114.03125 180.195312 L 113.925781 180.449219 L 113.65625 180.480469 C 111.839844 180.683594 110.113281 180.890625 108.480469 181.101562 C 106.851562 181.308594 105.230469 181.53125 103.628906 181.765625 L 103.304688 181.8125 L 103.152344 181.519531 C 102.222656 179.722656 101.335938 177.621094 100.980469 175.8125 C 100.800781 174.894531 100.757812 174.039062 100.910156 173.328125 C 101.078125 172.542969 101.476562 171.929688 102.175781 171.570312 C 102.398438 171.453125 102.652344 171.363281 102.933594 171.308594 C 106.917969 170.527344 107.859375 168.980469 107.535156 167.320312 C 107.195312 165.585938 105.585938 163.65625 104.4375 162.273438 C 103.746094 161.441406 103.203125 160.792969 103.105469 160.359375 L 102.964844 159.726562 L 103.609375 159.800781 C 110.25 160.5625 116.125 160.800781 121.4375 160.679688 C 126.738281 160.554688 131.496094 160.074219 135.902344 159.398438 L 135.976562 159.386719 L 136.0625 159.402344 C 152.164062 162.667969 190.324219 165.613281 210.714844 166.574219 C 214.8125 166.765625 218.183594 166.878906 220.507812 166.898438 C 222.757812 166.914062 223.433594 167.042969 221.609375 166.097656 C 221.304688 165.941406 220.972656 165.738281 220.589844 165.519531 C 211.898438 160.539062 202.800781 157.699219 193.445312 156.503906 C 183.105469 155.183594 172.445312 155.867188 161.667969 157.878906 C 162.0625 158.570312 163.128906 159.984375 165.894531 161.851562 L 167.605469 163.007812 L 165.566406 162.695312 C 163.253906 162.335938 160.910156 162.0625 158.480469 161.777344 C 153.558594 161.203125 148.273438 160.582031 142.1875 159.175781 L 140.113281 158.695312 L 142.199219 158.273438 C 145.511719 157.605469 148.714844 156.847656 151.851562 156.101562 C 171.195312 151.523438 188.097656 147.523438 228.429688 165.460938 C 240.1875 164.824219 258.394531 171.914062 267.824219 176.5625 C 269.777344 177.527344 271.355469 178.382812 272.425781 179.050781 C 273.703125 179.84375 274.328125 180.511719 274.140625 180.9375 Z M 271.9375 179.835938 C 270.886719 179.183594 269.335938 178.339844 267.414062 177.390625 C 258.042969 172.769531 239.9375 165.710938 228.371094 166.386719 L 228.261719 166.394531 L 228.15625 166.347656 C 188.039062 148.488281 171.265625 152.457031 152.0625 157.003906 C 149.609375 157.585938 147.113281 158.175781 144.496094 158.738281 C 149.660156 159.816406 154.265625 160.355469 158.585938 160.859375 C 160.386719 161.070312 162.140625 161.277344 163.859375 161.511719 C 160.976562 159.222656 160.5625 157.664062 160.5625 157.65625 L 160.425781 157.171875 L 160.921875 157.078125 C 171.980469 154.96875 182.929688 154.230469 193.558594 155.589844 C 204.203125 156.949219 214.515625 160.40625 224.28125 166.679688 C 224.402344 166.757812 224.480469 166.855469 224.519531 166.976562 C 224.722656 167.574219 223.253906 167.84375 220.5 167.820312 C 218.148438 167.800781 214.761719 167.6875 210.671875 167.496094 C 190.292969 166.535156 152.167969 163.59375 135.964844 160.324219 C 131.558594 160.996094 126.789062 161.476562 121.453125 161.601562 C 116.648438 161.710938 111.398438 161.53125 105.554688 160.941406 C 104.230469 160.804688 104.277344 160.640625 105.144531 161.683594 C 106.359375 163.144531 108.054688 165.183594 108.441406 167.144531 C 108.867188 169.308594 107.796875 171.296875 103.113281 172.21875 C 102.914062 172.253906 102.746094 172.3125 102.597656 172.390625 C 102.171875 172.609375 101.925781 173.003906 101.816406 173.519531 C 101.6875 174.101562 101.730469 174.832031 101.890625 175.636719 C 102.207031 177.253906 102.984375 179.140625 103.824219 180.804688 C 105.257812 180.597656 106.773438 180.390625 108.367188 180.1875 C 109.996094 179.976562 111.636719 179.777344 113.285156 179.589844 C 114.285156 177.292969 115.855469 174.96875 118.324219 173.253906 C 120.878906 171.480469 124.378906 170.367188 129.179688 170.617188 C 132.433594 170.785156 134.984375 171.601562 136.972656 172.824219 C 138.882812 174 140.273438 175.546875 141.277344 177.261719 C 143.621094 177.125 146.023438 177 148.476562 176.886719 C 150.691406 176.78125 152.945312 176.6875 155.234375 176.601562 C 154.652344 175.886719 154.125 175.183594 153.644531 174.511719 C 153.007812 173.617188 152.457031 172.777344 151.988281 172.035156 C 148.210938 166.066406 153.996094 167.027344 154.203125 167.066406 C 160.589844 167.734375 168.308594 168.46875 175.550781 169.160156 C 188.347656 170.378906 200.46875 171.84375 199.640625 172.207031 C 199.035156 172.535156 191.773438 172.648438 170.484375 171.488281 C 170.316406 171.476562 170.1875 171.492188 170.097656 171.527344 C 170.003906 171.558594 169.953125 171.640625 169.9375 171.757812 C 169.90625 171.976562 169.964844 172.285156 170.089844 172.660156 C 170.375 173.503906 170.988281 174.613281 171.777344 175.828125 C 172.078125 176.289062 172.074219 176.15625 172.648438 176.144531 C 174.589844 176.117188 176.550781 176.09375 178.53125 176.078125 C 180.929688 176.058594 183.199219 176.046875 185.339844 176.046875 C 192.449219 176.046875 199.449219 176.140625 206.269531 176.3125 C 213.148438 176.488281 219.789062 176.746094 226.132812 177.082031 C 227.253906 175.613281 228.664062 174.308594 230.4375 173.300781 C 232.285156 172.253906 234.523438 171.539062 237.234375 171.316406 C 241.382812 170.980469 244.582031 171.792969 247.050781 173.28125 C 249.445312 174.722656 251.136719 176.789062 252.335938 179.046875 C 253.019531 179.121094 253.871094 179.21875 254.867188 179.332031 C 256.050781 179.46875 276.121094 182.433594 271.9375 179.835938 Z M 271.9375 179.835938 " fill-opacity="1" fill-rule="nonzero"/></g><g fill="#268c4a" fill-opacity="1"><g transform="translate(108.1533, 201.64862)"><g><path d="M 12.859375 0 L 12.859375 -16.265625 L 0.640625 -16.265625 L 0.640625 0 L 4.703125 0 L 4.703125 -4.53125 L 8.78125 -4.53125 L 8.78125 0 Z M 8.78125 -8.25 L 4.703125 -8.25 L 4.703125 -12.53125 L 8.78125 -12.53125 Z M 8.78125 -8.25 "/></g></g></g><g fill="#268c4a" fill-opacity="1"><g transform="translate(126.395757, 201.64862)"><g><path d="M 12.859375 0 L 12.859375 -16.265625 L 8.78125 -16.265625 L 8.78125 -3.703125 L 4.703125 -3.703125 L 4.703125 -16.265625 L 0.640625 -16.265625 L 0.640625 0 Z M 12.859375 0 "/></g></g></g><g fill="#268c4a" fill-opacity="1"><g transform="translate(144.638215, 201.64862)"><g><path d="M 12.578125 -12.53125 L 12.578125 -16.265625 L 0.359375 -16.265625 L 0.359375 -12.53125 L 4.46875 -12.53125 L 4.46875 0 L 8.53125 0 L 8.53125 -12.53125 Z M 12.578125 -12.53125 "/></g></g></g><g fill="#268c4a" fill-opacity="1"><g transform="translate(162.344171, 201.64862)"><g><path d="M 12.859375 0 L 12.859375 -16.265625 L 0.640625 -16.265625 L 0.640625 0 Z M 8.78125 -3.703125 L 4.703125 -3.703125 L 4.703125 -12.53125 L 8.78125 -12.53125 Z M 8.78125 -3.703125 "/></g></g></g><g fill="#268c4a" fill-opacity="1"><g transform="translate(180.58663, 201.64862)"><g><path d="M 12.859375 0 L 12.859375 -3.703125 L 4.703125 -3.703125 L 4.703125 -12.53125 L 12.859375 -12.53125 L 12.859375 -16.265625 L 0.640625 -16.265625 L 0.640625 0 Z M 12.859375 0 "/></g></g></g><g fill="#268c4a" fill-opacity="1"><g transform="translate(198.682777, 201.64862)"><g><path d="M 12.859375 0 L 12.859375 -16.265625 L 0.640625 -16.265625 L 0.640625 0 L 4.703125 0 L 4.703125 -4.53125 L 8.78125 -4.53125 L 8.78125 0 Z M 8.78125 -8.25 L 4.703125 -8.25 L 4.703125 -12.53125 L 8.78125 -12.53125 Z M 8.78125 -8.25 "/></g></g></g><g fill="#268c4a" fill-opacity="1"><g transform="translate(216.92523, 201.64862)"><g><path d="M 12.859375 0 L 10.46875 -4.53125 L 12.859375 -4.53125 L 12.859375 -16.265625 L 0.640625 -16.265625 L 0.640625 0 L 4.703125 0 L 4.703125 -4.53125 L 6.46875 -4.53125 L 8.78125 0 Z M 8.78125 -8.25 L 4.703125 -8.25 L 4.703125 -12.53125 L 8.78125 -12.53125 Z M 8.78125 -8.25 "/></g></g></g><g fill="#268c4a" fill-opacity="1"><g transform="translate(235.167684, 201.64862)"><g><path d="M 12.8125 0 L 12.8125 -3.703125 L 4.703125 -3.703125 L 4.703125 -6.390625 L 12.8125 -6.390625 L 12.8125 -9.96875 L 4.703125 -9.96875 L 4.703125 -12.53125 L 12.8125 -12.53125 L 12.8125 -16.265625 L 0.640625 -16.265625 L 0.640625 0 Z M 12.8125 0 "/></g></g></g><g fill="#dce61e" fill-opacity="1"><g transform="translate(253.372044, 201.64862)"><g><path d="M 12.859375 -6.390625 L 12.859375 -9.96875 L 8.78125 -9.96875 L 8.78125 -14.046875 L 4.703125 -14.046875 L 4.703125 -9.96875 L 0.640625 -9.96875 L 0.640625 -6.390625 L 4.703125 -6.390625 L 4.703125 -2.3125 L 8.78125 -2.3125 L 8.78125 -6.390625 Z M 12.859375 -6.390625 "/></g></g></g><g fill="#232323" fill-opacity="1"><g transform="translate(136.83984, 216.9594)"><g><path d="M 2.8125 0.015625 C 2.5625 0.0546875 2.414062 0.078125 2.375 0.078125 C 1.6875 0.078125 1.160156 -0.117188 0.796875 -0.515625 C 0.441406 -0.910156 0.265625 -1.492188 0.265625 -2.265625 L 0.265625 -6.40625 C 0.265625 -7.144531 0.441406 -7.707031 0.796875 -8.09375 C 1.160156 -8.476562 1.6875 -8.671875 2.375 -8.671875 C 3.0625 -8.671875 3.585938 -8.476562 3.953125 -8.09375 C 4.316406 -7.707031 4.5 -7.144531 4.5 -6.40625 L 4.5 -2.265625 C 4.5 -1.554688 4.335938 -0.992188 4.015625 -0.578125 L 4.765625 -0.109375 L 4.1875 0.90625 Z M 2.375 -1.5 C 2.539062 -1.5 2.644531 -1.578125 2.6875 -1.734375 C 2.738281 -1.898438 2.765625 -2.109375 2.765625 -2.359375 L 2.765625 -6.375 C 2.765625 -6.59375 2.734375 -6.765625 2.671875 -6.890625 C 2.617188 -7.023438 2.519531 -7.09375 2.375 -7.09375 C 2.09375 -7.09375 1.953125 -6.859375 1.953125 -6.390625 L 1.953125 -2.328125 C 1.953125 -2.085938 1.976562 -1.890625 2.03125 -1.734375 C 2.09375 -1.578125 2.207031 -1.5 2.375 -1.5 Z M 2.375 -1.5 "/></g></g></g><g fill="#232323" fill-opacity="1"><g transform="translate(141.777897, 216.9594)"><g><path d="M 1.765625 0.078125 C 1.210938 0.078125 0.832031 -0.0820312 0.625 -0.40625 C 0.425781 -0.738281 0.328125 -1.226562 0.328125 -1.875 L 0.328125 -7.3125 L 2.09375 -7.3125 L 2.09375 -2.21875 C 2.09375 -2.175781 2.09375 -2.050781 2.09375 -1.84375 C 2.09375 -1.644531 2.125 -1.503906 2.1875 -1.421875 C 2.25 -1.335938 2.347656 -1.296875 2.484375 -1.296875 C 2.660156 -1.296875 2.769531 -1.367188 2.8125 -1.515625 C 2.863281 -1.660156 2.890625 -1.875 2.890625 -2.15625 L 2.890625 -2.21875 L 2.90625 -7.3125 L 4.640625 -7.3125 L 4.640625 0 L 2.890625 0 L 2.890625 -0.78125 C 2.765625 -0.46875 2.625 -0.242188 2.46875 -0.109375 C 2.3125 0.015625 2.078125 0.078125 1.765625 0.078125 Z M 1.765625 0.078125 "/></g></g></g><g fill="#232323" fill-opacity="1"><g transform="translate(146.76593, 216.9594)"><g><path d="M 1.6875 0.078125 C 1.113281 0.078125 0.722656 -0.109375 0.515625 -0.484375 C 0.304688 -0.859375 0.203125 -1.394531 0.203125 -2.09375 C 0.203125 -2.664062 0.273438 -3.101562 0.421875 -3.40625 C 0.578125 -3.71875 0.785156 -3.945312 1.046875 -4.09375 C 1.316406 -4.238281 1.722656 -4.394531 2.265625 -4.5625 L 2.75 -4.734375 L 2.75 -5.484375 C 2.75 -5.671875 2.707031 -5.816406 2.625 -5.921875 C 2.550781 -6.023438 2.460938 -6.078125 2.359375 -6.078125 C 2.265625 -6.078125 2.179688 -6.03125 2.109375 -5.9375 C 2.046875 -5.851562 2.015625 -5.738281 2.015625 -5.59375 L 2.015625 -5.15625 L 0.3125 -5.15625 L 0.3125 -5.40625 C 0.3125 -6.125 0.476562 -6.632812 0.8125 -6.9375 C 1.144531 -7.25 1.691406 -7.40625 2.453125 -7.40625 C 3.066406 -7.40625 3.5625 -7.242188 3.9375 -6.921875 C 4.320312 -6.609375 4.515625 -6.160156 4.515625 -5.578125 L 4.515625 0 L 2.765625 0 L 2.765625 -0.875 C 2.679688 -0.570312 2.539062 -0.335938 2.34375 -0.171875 C 2.15625 -0.00390625 1.9375 0.078125 1.6875 0.078125 Z M 2.375 -1.28125 C 2.5 -1.28125 2.585938 -1.332031 2.640625 -1.4375 C 2.703125 -1.550781 2.734375 -1.6875 2.734375 -1.84375 L 2.734375 -3.890625 C 2.472656 -3.785156 2.28125 -3.65625 2.15625 -3.5 C 2.039062 -3.351562 1.984375 -3.144531 1.984375 -2.875 L 1.984375 -1.9375 C 1.984375 -1.5 2.113281 -1.28125 2.375 -1.28125 Z M 2.375 -1.28125 "/></g></g></g><g fill="#232323" fill-opacity="1"><g transform="translate(151.59402, 216.9594)"><g><path d="M 0.34375 0 L 0.34375 -8.640625 L 2.125 -8.640625 L 2.125 0 Z M 0.34375 0 "/></g></g></g><g fill="#232323" fill-opacity="1"><g transform="translate(154.073039, 216.9594)"><g><path d="M 0.34375 -7.8125 L 0.34375 -9.03125 L 2.09375 -9.03125 L 2.09375 -7.8125 Z M 0.34375 0 L 0.34375 -7.3125 L 2.09375 -7.3125 L 2.09375 0 Z M 0.34375 0 "/></g></g></g><g fill="#232323" fill-opacity="1"><g transform="translate(156.502082, 216.9594)"><g><path d="M 1.859375 0.078125 C 1.398438 0.078125 1.082031 -0.015625 0.90625 -0.203125 C 0.738281 -0.398438 0.65625 -0.710938 0.65625 -1.140625 L 0.65625 -5.703125 L 0.15625 -5.703125 L 0.15625 -7.046875 L 0.65625 -7.046875 L 0.65625 -8.59375 L 2.34375 -8.59375 L 2.34375 -7.046875 L 2.84375 -7.046875 L 2.84375 -5.703125 L 2.34375 -5.703125 L 2.34375 -1.59375 C 2.34375 -1.46875 2.351562 -1.375 2.375 -1.3125 C 2.394531 -1.257812 2.453125 -1.234375 2.546875 -1.234375 C 2.609375 -1.234375 2.664062 -1.234375 2.71875 -1.234375 C 2.78125 -1.242188 2.820312 -1.25 2.84375 -1.25 L 2.84375 -0.046875 C 2.75 -0.0234375 2.601562 0 2.40625 0.03125 C 2.21875 0.0625 2.035156 0.078125 1.859375 0.078125 Z M 1.859375 0.078125 "/></g></g></g><g fill="#232323" fill-opacity="1"><g transform="translate(159.550879, 216.9594)"><g><path d="M 0.203125 0.109375 L 1.046875 0.109375 C 1.171875 0.109375 1.234375 0.0546875 1.234375 -0.046875 C 1.234375 -0.0859375 1.226562 -0.125 1.21875 -0.15625 L 0.078125 -7.3125 L 1.75 -7.3125 L 2.078125 -3.75 L 2.234375 -1.9375 L 2.4375 -3.75 L 2.8125 -7.3125 L 4.5 -7.3125 L 3.140625 0.375 C 3.085938 0.664062 2.988281 0.878906 2.84375 1.015625 C 2.707031 1.148438 2.488281 1.21875 2.1875 1.21875 L 0.203125 1.21875 Z M 0.203125 0.109375 "/></g></g></g><g fill="#232323" fill-opacity="1"><g transform="translate(164.15906, 216.9594)"><g/></g></g><g fill="#232323" fill-opacity="1"><g transform="translate(166.498141, 216.9594)"><g><path d="M 0.34375 -7.3125 L 2.09375 -7.3125 L 2.09375 -6.515625 C 2.1875 -6.796875 2.335938 -7.015625 2.546875 -7.171875 C 2.765625 -7.328125 3.035156 -7.40625 3.359375 -7.40625 L 3.359375 -5.953125 C 3.109375 -5.953125 2.832031 -5.914062 2.53125 -5.84375 C 2.238281 -5.769531 2.09375 -5.6875 2.09375 -5.59375 L 2.09375 0 L 0.34375 0 Z M 0.34375 -7.3125 "/></g></g></g><g fill="#232323" fill-opacity="1"><g transform="translate(169.936781, 216.9594)"><g><path d="M 2.40625 0.078125 C 1.644531 0.078125 1.101562 -0.125 0.78125 -0.53125 C 0.457031 -0.945312 0.296875 -1.566406 0.296875 -2.390625 L 0.296875 -5.328125 C 0.296875 -6.003906 0.488281 -6.519531 0.875 -6.875 C 1.257812 -7.226562 1.796875 -7.40625 2.484375 -7.40625 C 3.890625 -7.40625 4.59375 -6.710938 4.59375 -5.328125 L 4.59375 -4.796875 C 4.59375 -4.265625 4.585938 -3.832031 4.578125 -3.5 L 2.046875 -3.5 L 2.046875 -2.078125 C 2.046875 -1.828125 2.070312 -1.628906 2.125 -1.484375 C 2.175781 -1.335938 2.285156 -1.265625 2.453125 -1.265625 C 2.585938 -1.265625 2.679688 -1.304688 2.734375 -1.390625 C 2.796875 -1.472656 2.832031 -1.5625 2.84375 -1.65625 C 2.851562 -1.757812 2.859375 -1.914062 2.859375 -2.125 L 2.859375 -2.828125 L 4.59375 -2.828125 L 4.59375 -2.40625 C 4.59375 -1.550781 4.425781 -0.921875 4.09375 -0.515625 C 3.769531 -0.117188 3.207031 0.078125 2.40625 0.078125 Z M 2.859375 -4.375 L 2.859375 -5.3125 C 2.859375 -5.832031 2.726562 -6.09375 2.46875 -6.09375 C 2.175781 -6.09375 2.03125 -5.832031 2.03125 -5.3125 L 2.03125 -4.375 Z M 2.859375 -4.375 "/></g></g></g><g fill="#232323" fill-opacity="1"><g transform="translate(174.814859, 216.9594)"><g><path d="M 0.34375 -7.3125 L 2.125 -7.3125 L 2.125 -6.9375 C 2.382812 -7.25 2.738281 -7.40625 3.1875 -7.40625 C 3.75 -7.40625 4.140625 -7.210938 4.359375 -6.828125 C 4.585938 -6.453125 4.703125 -5.925781 4.703125 -5.25 L 4.703125 -2.546875 C 4.703125 -1.972656 4.664062 -1.503906 4.59375 -1.140625 C 4.53125 -0.773438 4.382812 -0.476562 4.15625 -0.25 C 3.925781 -0.03125 3.582031 0.078125 3.125 0.078125 C 2.6875 0.078125 2.351562 -0.046875 2.125 -0.296875 L 2.125 1.453125 L 0.34375 1.453125 Z M 2.546875 -1.28125 C 2.710938 -1.28125 2.816406 -1.351562 2.859375 -1.5 C 2.910156 -1.644531 2.9375 -1.859375 2.9375 -2.140625 L 2.9375 -5.25 C 2.9375 -5.5 2.910156 -5.691406 2.859375 -5.828125 C 2.816406 -5.960938 2.710938 -6.03125 2.546875 -6.03125 C 2.265625 -6.03125 2.125 -5.773438 2.125 -5.265625 L 2.125 -2.0625 C 2.125 -1.8125 2.148438 -1.617188 2.203125 -1.484375 C 2.265625 -1.347656 2.378906 -1.28125 2.546875 -1.28125 Z M 2.546875 -1.28125 "/></g></g></g><g fill="#232323" fill-opacity="1"><g transform="translate(179.812883, 216.9594)"><g><path d="M 1.6875 0.078125 C 1.113281 0.078125 0.722656 -0.109375 0.515625 -0.484375 C 0.304688 -0.859375 0.203125 -1.394531 0.203125 -2.09375 C 0.203125 -2.664062 0.273438 -3.101562 0.421875 -3.40625 C 0.578125 -3.71875 0.785156 -3.945312 1.046875 -4.09375 C 1.316406 -4.238281 1.722656 -4.394531 2.265625 -4.5625 L 2.75 -4.734375 L 2.75 -5.484375 C 2.75 -5.671875 2.707031 -5.816406 2.625 -5.921875 C 2.550781 -6.023438 2.460938 -6.078125 2.359375 -6.078125 C 2.265625 -6.078125 2.179688 -6.03125 2.109375 -5.9375 C 2.046875 -5.851562 2.015625 -5.738281 2.015625 -5.59375 L 2.015625 -5.15625 L 0.3125 -5.15625 L 0.3125 -5.40625 C 0.3125 -6.125 0.476562 -6.632812 0.8125 -6.9375 C 1.144531 -7.25 1.691406 -7.40625 2.453125 -7.40625 C 3.066406 -7.40625 3.5625 -7.242188 3.9375 -6.921875 C 4.320312 -6.609375 4.515625 -6.160156 4.515625 -5.578125 L 4.515625 0 L 2.765625 0 L 2.765625 -0.875 C 2.679688 -0.570312 2.539062 -0.335938 2.34375 -0.171875 C 2.15625 -0.00390625 1.9375 0.078125 1.6875 0.078125 Z M 2.375 -1.28125 C 2.5 -1.28125 2.585938 -1.332031 2.640625 -1.4375 C 2.703125 -1.550781 2.734375 -1.6875 2.734375 -1.84375 L 2.734375 -3.890625 C 2.472656 -3.785156 2.28125 -3.65625 2.15625 -3.5 C 2.039062 -3.351562 1.984375 -3.144531 1.984375 -2.875 L 1.984375 -1.9375 C 1.984375 -1.5 2.113281 -1.28125 2.375 -1.28125 Z M 2.375 -1.28125 "/></g></g></g><g fill="#232323" fill-opacity="1"><g transform="translate(184.640973, 216.9594)"><g><path d="M 0.34375 -7.8125 L 0.34375 -9.03125 L 2.09375 -9.03125 L 2.09375 -7.8125 Z M 0.34375 0 L 0.34375 -7.3125 L 2.09375 -7.3125 L 2.09375 0 Z M 0.34375 0 "/></g></g></g><g fill="#232323" fill-opacity="1"><g transform="translate(187.070016, 216.9594)"><g><path d="M 0.34375 -7.3125 L 2.09375 -7.3125 L 2.09375 -6.515625 C 2.1875 -6.796875 2.335938 -7.015625 2.546875 -7.171875 C 2.765625 -7.328125 3.035156 -7.40625 3.359375 -7.40625 L 3.359375 -5.953125 C 3.109375 -5.953125 2.832031 -5.914062 2.53125 -5.84375 C 2.238281 -5.769531 2.09375 -5.6875 2.09375 -5.59375 L 2.09375 0 L 0.34375 0 Z M 0.34375 -7.3125 "/></g></g></g><g fill="#232323" fill-opacity="1"><g transform="translate(190.508656, 216.9594)"><g><path d="M 2.359375 0.078125 C 0.910156 0.078125 0.1875 -0.65625 0.1875 -2.125 L 0.203125 -2.703125 L 1.953125 -2.703125 L 1.953125 -1.84375 C 1.953125 -1.664062 1.984375 -1.53125 2.046875 -1.4375 C 2.117188 -1.351562 2.234375 -1.3125 2.390625 -1.3125 C 2.617188 -1.3125 2.734375 -1.5 2.734375 -1.875 C 2.734375 -2.15625 2.675781 -2.375 2.5625 -2.53125 C 2.457031 -2.695312 2.285156 -2.867188 2.046875 -3.046875 L 1.125 -3.765625 C 0.800781 -4.015625 0.566406 -4.269531 0.421875 -4.53125 C 0.285156 -4.800781 0.21875 -5.175781 0.21875 -5.65625 C 0.21875 -6.019531 0.316406 -6.332031 0.515625 -6.59375 C 0.710938 -6.863281 0.972656 -7.066406 1.296875 -7.203125 C 1.628906 -7.335938 1.992188 -7.40625 2.390625 -7.40625 C 3.804688 -7.40625 4.515625 -6.695312 4.515625 -5.28125 L 4.515625 -5.140625 L 2.703125 -5.140625 L 2.703125 -5.421875 C 2.703125 -5.597656 2.675781 -5.742188 2.625 -5.859375 C 2.570312 -5.984375 2.476562 -6.046875 2.34375 -6.046875 C 2.21875 -6.046875 2.125 -6.007812 2.0625 -5.9375 C 2 -5.875 1.96875 -5.78125 1.96875 -5.65625 C 1.96875 -5.394531 2.070312 -5.191406 2.28125 -5.046875 L 3.359375 -4.25 C 3.742188 -3.957031 4.039062 -3.644531 4.25 -3.3125 C 4.457031 -2.976562 4.5625 -2.554688 4.5625 -2.046875 C 4.5625 -1.359375 4.367188 -0.832031 3.984375 -0.46875 C 3.597656 -0.101562 3.054688 0.078125 2.359375 0.078125 Z M 2.359375 0.078125 "/></g></g></g><g fill="#232323" fill-opacity="1"><g transform="translate(195.256787, 216.9594)"><g/></g></g><g fill="#232323" fill-opacity="1"><g transform="translate(197.595867, 216.9594)"><g><path d="M 1.125 0 L 0.234375 -7.3125 L 1.734375 -7.3125 L 2.21875 -3.390625 L 2.640625 -7.3125 L 4.171875 -7.3125 L 4.671875 -3.390625 L 5.078125 -7.3125 L 6.734375 -7.3125 L 5.796875 0 L 4.046875 0 L 3.515625 -4.15625 L 3.0625 0 Z M 1.125 0 "/></g></g></g><g fill="#232323" fill-opacity="1"><g transform="translate(204.553119, 216.9594)"><g><path d="M 0.34375 -7.8125 L 0.34375 -9.03125 L 2.09375 -9.03125 L 2.09375 -7.8125 Z M 0.34375 0 L 0.34375 -7.3125 L 2.09375 -7.3125 L 2.09375 0 Z M 0.34375 0 "/></g></g></g><g fill="#232323" fill-opacity="1"><g transform="translate(206.982162, 216.9594)"><g><path d="M 1.859375 0.078125 C 1.398438 0.078125 1.082031 -0.015625 0.90625 -0.203125 C 0.738281 -0.398438 0.65625 -0.710938 0.65625 -1.140625 L 0.65625 -5.703125 L 0.15625 -5.703125 L 0.15625 -7.046875 L 0.65625 -7.046875 L 0.65625 -8.59375 L 2.34375 -8.59375 L 2.34375 -7.046875 L 2.84375 -7.046875 L 2.84375 -5.703125 L 2.34375 -5.703125 L 2.34375 -1.59375 C 2.34375 -1.46875 2.351562 -1.375 2.375 -1.3125 C 2.394531 -1.257812 2.453125 -1.234375 2.546875 -1.234375 C 2.609375 -1.234375 2.664062 -1.234375 2.71875 -1.234375 C 2.78125 -1.242188 2.820312 -1.25 2.84375 -1.25 L 2.84375 -0.046875 C 2.75 -0.0234375 2.601562 0 2.40625 0.03125 C 2.21875 0.0625 2.035156 0.078125 1.859375 0.078125 Z M 1.859375 0.078125 "/></g></g></g><g fill="#232323" fill-opacity="1"><g transform="translate(210.03096, 216.9594)"><g><path d="M 0.34375 -8.640625 L 2.15625 -8.640625 L 2.15625 -6.59375 C 2.34375 -7.132812 2.695312 -7.40625 3.21875 -7.40625 C 3.707031 -7.40625 4.078125 -7.242188 4.328125 -6.921875 C 4.585938 -6.609375 4.71875 -6.179688 4.71875 -5.640625 L 4.71875 0 L 2.96875 0 L 2.96875 -5.53125 C 2.96875 -5.6875 2.929688 -5.8125 2.859375 -5.90625 C 2.785156 -6.007812 2.679688 -6.0625 2.546875 -6.0625 C 2.421875 -6.0625 2.320312 -6.007812 2.25 -5.90625 C 2.1875 -5.8125 2.15625 -5.691406 2.15625 -5.546875 L 2.15625 0 L 0.34375 0 Z M 0.34375 -8.640625 "/></g></g></g><g fill="#232323" fill-opacity="1"><g transform="translate(215.078971, 216.9594)"><g/></g></g><g fill="#232323" fill-opacity="1"><g transform="translate(217.418052, 216.9594)"><g><path d="M 0.34375 -7.3125 L 2.125 -7.3125 L 2.125 -6.9375 C 2.382812 -7.25 2.738281 -7.40625 3.1875 -7.40625 C 3.75 -7.40625 4.140625 -7.210938 4.359375 -6.828125 C 4.585938 -6.453125 4.703125 -5.925781 4.703125 -5.25 L 4.703125 -2.546875 C 4.703125 -1.972656 4.664062 -1.503906 4.59375 -1.140625 C 4.53125 -0.773438 4.382812 -0.476562 4.15625 -0.25 C 3.925781 -0.03125 3.582031 0.078125 3.125 0.078125 C 2.6875 0.078125 2.351562 -0.046875 2.125 -0.296875 L 2.125 1.453125 L 0.34375 1.453125 Z M 2.546875 -1.28125 C 2.710938 -1.28125 2.816406 -1.351562 2.859375 -1.5 C 2.910156 -1.644531 2.9375 -1.859375 2.9375 -2.140625 L 2.9375 -5.25 C 2.9375 -5.5 2.910156 -5.691406 2.859375 -5.828125 C 2.816406 -5.960938 2.710938 -6.03125 2.546875 -6.03125 C 2.265625 -6.03125 2.125 -5.773438 2.125 -5.265625 L 2.125 -2.0625 C 2.125 -1.8125 2.148438 -1.617188 2.203125 -1.484375 C 2.265625 -1.347656 2.378906 -1.28125 2.546875 -1.28125 Z M 2.546875 -1.28125 "/></g></g></g><g fill="#232323" fill-opacity="1"><g transform="translate(222.416075, 216.9594)"><g><path d="M 0.34375 -7.3125 L 2.09375 -7.3125 L 2.09375 -6.515625 C 2.1875 -6.796875 2.335938 -7.015625 2.546875 -7.171875 C 2.765625 -7.328125 3.035156 -7.40625 3.359375 -7.40625 L 3.359375 -5.953125 C 3.109375 -5.953125 2.832031 -5.914062 2.53125 -5.84375 C 2.238281 -5.769531 2.09375 -5.6875 2.09375 -5.59375 L 2.09375 0 L 0.34375 0 Z M 0.34375 -7.3125 "/></g></g></g><g fill="#232323" fill-opacity="1"><g transform="translate(225.854716, 216.9594)"><g><path d="M 0.34375 -7.8125 L 0.34375 -9.03125 L 2.09375 -9.03125 L 2.09375 -7.8125 Z M 0.34375 0 L 0.34375 -7.3125 L 2.09375 -7.3125 L 2.09375 0 Z M 0.34375 0 "/></g></g></g><g fill="#232323" fill-opacity="1"><g transform="translate(228.283758, 216.9594)"><g><path d="M 1.796875 0.078125 C 1.367188 0.078125 1.046875 -0.0195312 0.828125 -0.21875 C 0.609375 -0.425781 0.460938 -0.695312 0.390625 -1.03125 C 0.328125 -1.375 0.296875 -1.804688 0.296875 -2.328125 L 0.3125 -5.625 C 0.3125 -6.144531 0.441406 -6.570312 0.703125 -6.90625 C 0.960938 -7.238281 1.332031 -7.40625 1.8125 -7.40625 C 2.289062 -7.40625 2.644531 -7.25 2.875 -6.9375 L 2.875 -8.640625 L 4.625 -8.640625 L 4.625 0 L 2.875 0 L 2.875 -0.78125 C 2.78125 -0.488281 2.644531 -0.269531 2.46875 -0.125 C 2.300781 0.0078125 2.078125 0.078125 1.796875 0.078125 Z M 2.453125 -1.296875 C 2.628906 -1.296875 2.742188 -1.378906 2.796875 -1.546875 C 2.847656 -1.710938 2.875 -1.941406 2.875 -2.234375 L 2.875 -5.296875 C 2.875 -5.503906 2.84375 -5.679688 2.78125 -5.828125 C 2.726562 -5.972656 2.625 -6.046875 2.46875 -6.046875 C 2.289062 -6.046875 2.175781 -5.976562 2.125 -5.84375 C 2.070312 -5.707031 2.046875 -5.523438 2.046875 -5.296875 L 2.046875 -2.203125 C 2.046875 -1.597656 2.179688 -1.296875 2.453125 -1.296875 Z M 2.453125 -1.296875 "/></g></g></g><g fill="#232323" fill-opacity="1"><g transform="translate(233.261789, 216.9594)"><g><path d="M 2.40625 0.078125 C 1.644531 0.078125 1.101562 -0.125 0.78125 -0.53125 C 0.457031 -0.945312 0.296875 -1.566406 0.296875 -2.390625 L 0.296875 -5.328125 C 0.296875 -6.003906 0.488281 -6.519531 0.875 -6.875 C 1.257812 -7.226562 1.796875 -7.40625 2.484375 -7.40625 C 3.890625 -7.40625 4.59375 -6.710938 4.59375 -5.328125 L 4.59375 -4.796875 C 4.59375 -4.265625 4.585938 -3.832031 4.578125 -3.5 L 2.046875 -3.5 L 2.046875 -2.078125 C 2.046875 -1.828125 2.070312 -1.628906 2.125 -1.484375 C 2.175781 -1.335938 2.285156 -1.265625 2.453125 -1.265625 C 2.585938 -1.265625 2.679688 -1.304688 2.734375 -1.390625 C 2.796875 -1.472656 2.832031 -1.5625 2.84375 -1.65625 C 2.851562 -1.757812 2.859375 -1.914062 2.859375 -2.125 L 2.859375 -2.828125 L 4.59375 -2.828125 L 4.59375 -2.40625 C 4.59375 -1.550781 4.425781 -0.921875 4.09375 -0.515625 C 3.769531 -0.117188 3.207031 0.078125 2.40625 0.078125 Z M 2.859375 -4.375 L 2.859375 -5.3125 C 2.859375 -5.832031 2.726562 -6.09375 2.46875 -6.09375 C 2.175781 -6.09375 2.03125 -5.832031 2.03125 -5.3125 L 2.03125 -4.375 Z M 2.859375 -4.375 "/></g></g></g></svg>