<svg version="1.1" id="Layer_1" xmlns="http://www.w3.org/2000/svg" xmlns:xlink="http://www.w3.org/1999/xlink" x="0px" y="0px"
	 width="100%" viewBox="0 0 500 500" enable-background="new 0 0 500 500" xml:space="preserve">
<path fill="#000000" opacity="1.000000" stroke="none" 
	d="
M272.000000,501.000000 
	C181.333359,501.000000 91.166710,501.000000 1.000048,501.000000 
	C1.000032,334.333405 1.000032,167.666794 1.000016,1.000138 
	C167.666565,1.000092 334.333130,1.000092 500.999756,1.000046 
	C500.999847,167.666519 500.999847,334.333038 500.999939,500.999786 
	C424.833344,501.000000 348.666656,501.000000 272.000000,501.000000 
M186.938370,234.432449 
	C186.561371,234.110413 186.184372,233.788391 185.341934,232.903214 
	C178.026184,225.272873 159.517273,227.508133 155.185913,235.418991 
	C151.462921,242.218719 145.222427,241.227982 139.499344,242.051147 
	C138.894608,240.426697 138.385040,239.258362 138.022461,238.046066 
	C136.969620,234.525818 135.385651,231.154617 141.606796,230.567627 
	C144.817276,230.264709 146.929764,227.009125 145.668289,223.552902 
	C144.777634,221.112625 142.653259,219.122665 141.329742,216.181686 
	C143.437576,216.339920 145.545425,216.498138 147.653259,216.656372 
	C147.721268,216.124512 147.789276,215.592651 147.857285,215.060791 
	C144.691254,214.610107 141.525208,214.159409 138.359177,213.708725 
	C138.185669,214.109375 138.012146,214.510040 137.838638,214.910706 
	C138.643250,215.805008 139.447876,216.699310 140.712875,218.158142 
	C140.837723,218.636551 140.842926,219.196533 141.105225,219.581223 
	C145.573456,226.134155 145.587555,226.145844 138.300781,229.274841 
	C134.915787,230.728378 134.486588,233.559158 135.278061,236.528625 
	C135.965485,239.107803 137.324448,241.508011 138.413834,244.050766 
	C145.794968,243.571747 153.380142,244.511444 157.027664,236.084534 
	C157.230530,235.615875 157.875885,235.332184 158.328278,234.979050 
	C166.975021,228.229568 175.891052,229.561615 185.048935,234.583176 
	C185.433304,234.904099 185.817673,235.225021 186.703934,236.168777 
	C188.746643,239.452103 196.509338,240.246490 199.938705,237.953171 
	C195.945084,237.008408 191.511902,235.959671 186.938370,234.432449 
M207.880035,225.962418 
	C212.082016,226.303894 216.283981,226.645386 220.485962,226.986862 
	C220.535782,226.379639 220.585602,225.772415 220.635422,225.165192 
	C216.413956,224.830933 212.192505,224.496674 207.277298,223.818405 
	C205.576141,224.063126 203.874985,224.307831 202.173828,224.552536 
	C202.487442,226.566422 202.645782,228.620407 203.153152,230.584229 
	C203.818726,233.160339 204.759491,235.665344 205.739777,238.687637 
	C206.525009,238.526260 208.584381,238.103012 210.508896,237.707474 
	C208.571381,234.885513 206.798080,232.200851 204.918533,229.592789 
	C202.882355,226.767349 204.156845,225.882416 207.880035,225.962418 
M223.807159,217.307358 
	C221.688110,215.655685 217.975891,215.230835 219.918594,211.010162 
	C226.732376,210.340836 233.571060,208.942947 240.354034,209.174789 
	C250.258774,209.513351 260.321808,210.137894 269.946167,212.295990 
	C278.553375,214.226028 286.657959,218.397614 294.984314,221.580154 
	C294.813080,222.015350 294.641815,222.450531 294.470581,222.885727 
	C292.650909,222.981323 290.831268,223.076935 288.106445,223.014038 
	C286.188080,223.129990 284.269684,223.245956 282.351318,223.361908 
	C282.380676,223.850616 282.410034,224.339310 282.439392,224.828018 
	C284.630157,224.828018 286.820892,224.828018 289.909760,224.986618 
	C293.509552,224.986618 297.109314,224.986618 300.709106,224.986618 
	C300.701019,224.516571 300.692963,224.046509 300.684875,223.576462 
	C299.153259,222.588867 297.621674,221.601273 296.090057,220.613663 
	C299.187317,220.974380 301.896637,222.343826 304.766235,222.934921 
	C312.176544,224.461365 319.916687,224.841568 327.052063,227.145035 
	C338.852600,230.954559 350.285126,235.906250 361.842346,240.453781 
	C362.089294,240.550964 361.969635,241.579910 361.114014,242.024673 
	C355.908203,241.733948 350.702393,241.443207 345.496613,241.152481 
	C345.462769,241.718872 345.428894,242.285263 345.395050,242.851654 
	C351.258209,243.166077 357.121368,243.480515 363.705627,243.955841 
	C364.768829,243.609711 365.832031,243.263580 367.463745,242.732346 
	C365.581818,241.131210 364.489105,239.759933 363.066193,239.058533 
	C347.052979,231.165314 330.889984,223.696579 312.767090,221.951019 
	C309.410797,221.627747 305.941864,221.282623 302.797180,220.174789 
	C292.986816,216.718643 283.451263,212.425888 273.531097,209.355972 
	C265.565918,206.891052 257.272186,205.020920 248.990784,204.136765 
	C228.189362,201.915970 208.277740,207.382553 187.794464,212.517441 
	C190.007156,213.319656 191.753342,213.952728 193.499542,214.585815 
	C193.415054,214.317505 193.330566,214.049194 193.246078,213.780899 
	C185.170670,214.239502 177.095276,214.698090 168.090561,215.009857 
	C161.874603,215.009857 155.658661,215.009857 149.442703,215.009857 
	C149.456635,215.610641 149.470581,216.211411 149.484512,216.812195 
	C156.319229,216.812195 163.153946,216.812195 170.844116,216.972641 
	C176.682083,216.748459 182.299820,215.154846 188.409760,216.507294 
	C196.770126,218.357910 205.450058,218.764816 214.871231,219.951599 
	C225.266113,220.966354 235.653534,222.067093 246.058121,222.970032 
	C255.214996,223.764709 264.389038,224.369141 273.560883,224.975906 
	C274.936829,225.066925 276.342316,224.711533 277.734131,224.562637 
	C277.698822,224.099792 277.663513,223.636948 277.628204,223.174118 
	C273.610992,222.779190 269.600616,222.284302 265.575256,222.008698 
	C254.911530,221.278595 244.233139,220.747559 233.578644,219.908051 
	C230.296204,219.649429 227.072021,218.651657 223.807159,217.307358 
M248.147964,228.002853 
	C239.881317,227.007034 231.614670,226.011215 223.348022,225.015396 
	C223.275665,225.443665 223.203308,225.871918 223.130951,226.300186 
	C224.325623,227.023239 225.520279,227.746292 226.717453,228.464813 
	C225.241318,234.498703 227.724777,237.984650 233.611710,237.975876 
	C244.711548,237.959351 255.811295,237.871796 267.711548,237.977997 
	C271.357025,237.977997 275.002502,237.977997 278.647980,237.977997 
	C278.609772,237.371872 278.571564,236.765747 278.533325,236.159622 
	C274.683899,236.159622 270.834473,236.159622 266.059937,236.011963 
	C254.148056,236.011963 242.236160,236.011963 230.408936,236.011963 
	C229.535538,234.005798 228.757706,232.219162 228.164505,230.856613 
	C235.324127,230.856613 242.159164,230.856613 249.859573,231.015396 
	C255.495193,231.283188 261.198181,233.446686 266.770630,229.925262 
	C260.845398,229.330795 254.920181,228.736313 248.147964,228.002853 
M129.612289,254.061752 
	C127.843819,254.061752 126.075340,254.061752 124.265244,254.061752 
	C124.265244,263.327820 124.265244,272.062225 124.265244,280.802307 
	C126.634644,280.802307 128.747040,280.802307 130.883347,280.802307 
	C131.279144,278.507111 131.640991,276.408875 132.014023,274.245789 
	C133.254669,274.245789 135.005814,274.245789 137.115250,274.245789 
	C137.115250,276.568726 137.115250,278.650635 137.115250,280.761047 
	C139.898682,280.761047 142.300873,280.761047 144.975739,280.761047 
	C144.975739,273.234650 144.781036,265.939789 145.053940,258.662445 
	C145.200912,254.742996 143.579834,253.723816 140.056442,253.966995 
	C136.910645,254.184128 133.739761,254.037689 129.612289,254.061752 
M226.404480,281.004333 
	C228.175735,281.004333 229.946991,281.004333 232.002182,281.004333 
	C232.002182,272.885284 232.157791,265.259430 231.846954,257.652649 
	C231.795959,256.404327 229.755127,254.279526 228.528290,254.200546 
	C222.792313,253.831223 217.019318,254.036636 211.282776,254.036636 
	C211.282776,263.275146 211.282776,271.999725 211.282776,281.004150 
	C216.171707,281.004150 220.800278,281.004150 226.404480,281.004333 
M299.028229,257.668152 
	C299.028229,265.421112 299.028229,273.174103 299.028229,280.681458 
	C301.755920,280.681458 303.841431,280.681458 306.244568,280.681458 
	C306.244568,278.269470 306.244568,276.187408 306.244568,274.105377 
	C306.750275,273.872345 307.256012,273.639343 307.761719,273.406342 
	C308.943237,275.527496 309.647308,278.330170 311.436615,279.583801 
	C313.338898,280.916595 316.269714,280.781281 319.973419,281.536041 
	C318.075287,278.331604 317.032379,276.570892 315.986694,274.805573 
	C319.345001,273.306183 320.434601,263.013855 318.280426,254.054474 
	C312.822144,254.054474 307.334991,253.925461 301.864929,254.173630 
	C300.882660,254.218185 299.971008,255.818741 299.028229,257.668152 
M269.995911,266.507263 
	C269.995911,271.277191 269.995911,276.047119 269.995911,280.734406 
	C272.621796,280.734406 274.699249,280.734406 276.829834,280.734406 
	C276.962067,278.386414 277.079590,276.299713 277.194427,274.260254 
	C279.264191,274.260254 281.005035,274.260254 283.120422,274.260254 
	C283.120422,276.591492 283.120422,278.669495 283.120422,280.751129 
	C285.577728,280.751129 287.642883,280.751129 289.695557,280.751129 
	C289.695557,271.770813 289.695557,263.046112 289.695557,254.312424 
	C283.007629,254.312424 276.616302,254.312424 269.995941,254.312424 
	C269.995941,258.235687 269.995941,261.875214 269.995911,266.507263 
M159.977798,254.557449 
	C157.284332,254.262009 153.410950,252.095917 153.124939,256.929230 
	C152.657532,264.828217 152.998596,272.775024 152.998596,280.774994 
	C160.209839,280.774994 166.938309,280.774994 173.972076,280.774994 
	C173.972076,272.937469 173.859924,265.322449 174.022659,257.713348 
	C174.096375,254.266953 172.124603,254.113922 169.562698,254.006927 
	C166.582993,253.882477 165.904144,255.352707 165.961349,257.974640 
	C166.073761,263.127258 165.997482,268.284271 165.966385,273.439301 
	C165.963623,273.896851 165.719925,274.352966 165.605896,274.748169 
	C164.088837,274.748169 162.687744,274.748169 160.639236,274.748169 
	C160.639236,268.061768 160.639236,261.619415 159.977798,254.557449 
M328.008362,265.514038 
	C328.008362,270.601715 328.008362,275.689423 328.008362,280.799561 
	C335.313538,280.799561 342.057800,280.799561 348.600769,280.799561 
	C348.600769,278.798737 348.600769,277.001709 348.600769,275.209198 
	C335.701355,274.340088 335.701355,274.340088 335.625580,270.749573 
	C340.051208,270.749573 344.469604,270.749573 349.059662,270.749573 
	C348.957123,268.658051 348.871826,266.918030 348.803680,265.527557 
	C344.114807,263.467468 338.162323,267.648499 335.111572,261.027496 
	C339.698486,261.027496 344.285400,261.027496 349.165192,261.027496 
	C348.573608,258.410370 348.091400,256.277008 347.646179,254.307236 
	C340.986176,254.307236 334.587952,254.307236 328.008057,254.307236 
	C328.008057,257.910004 328.008057,261.215851 328.008362,265.514038 
M260.184875,280.953827 
	C260.492310,279.040405 260.799713,277.126953 261.188141,274.709412 
	C256.210815,274.709412 252.140701,274.709412 248.344025,274.709412 
	C248.344025,269.882019 248.344025,265.477692 248.344025,260.707336 
	C252.787369,260.707336 256.868774,260.707336 260.789825,260.707336 
	C260.789825,258.371368 260.789825,256.420135 260.789825,254.259262 
	C254.190308,254.259262 247.787415,254.259262 241.192902,254.259262 
	C241.192902,263.143738 241.192902,271.874176 241.192902,280.999786 
	C247.331894,280.999786 253.280762,280.999786 260.184875,280.953827 
M200.416748,261.003937 
	C205.953156,260.309662 201.573486,256.473022 203.311142,254.081116 
	C197.594879,254.081116 192.652618,254.065369 187.710495,254.085159 
	C181.675293,254.109314 181.675339,254.122208 182.420471,261.001709 
	C184.451492,261.001709 186.528885,261.001709 189.124268,261.001709 
	C189.124268,267.872589 189.124268,274.403107 189.124268,280.682678 
	C191.729736,280.682678 193.792343,280.682678 196.004517,280.682678 
	C196.004517,274.905548 196.217651,269.438202 195.921875,263.998505 
	C195.753540,260.902679 197.309174,260.823364 200.416748,261.003937 
M364.097229,277.231506 
	C366.264496,277.548248 368.431763,277.864960 371.047302,278.247192 
	C371.047302,275.481750 371.047302,273.397949 371.047302,270.948944 
	C373.508087,270.948944 375.595398,270.948944 377.787781,270.948944 
	C377.787781,268.826996 377.787781,267.084839 377.787781,264.961365 
	C375.503174,264.961365 373.422058,264.961365 370.962128,264.961365 
	C370.962128,262.505707 370.962128,260.425903 370.962128,258.243256 
	C368.500336,258.243256 366.430908,258.243256 363.949554,258.243256 
	C363.949554,260.553955 363.949554,262.629059 363.949554,265.071106 
	C361.464111,265.071106 359.377380,265.071106 357.217010,265.071106 
	C357.217010,267.198151 357.217010,268.938934 357.217010,271.055695 
	C359.505432,271.055695 361.592896,271.055695 364.015625,271.055695 
	C364.015625,273.050079 364.015625,274.682343 364.097229,277.231506 
M335.050140,236.418198 
	C331.090851,230.437668 322.105286,227.923584 314.838745,229.432556 
	C307.232086,231.012192 302.212311,239.085266 293.530457,237.438034 
	C293.530457,237.759506 293.530457,238.080963 293.530457,239.157135 
	C296.989197,238.851578 300.636169,239.138214 303.826996,238.066666 
	C306.696442,237.103043 308.879333,234.256607 311.689209,232.924362 
	C320.643524,228.678925 329.347107,231.603806 333.189178,237.176620 
	C336.254211,241.622314 339.519623,242.312592 344.130798,241.874313 
	C341.265503,240.252167 338.400208,238.630035 335.050140,236.418198 
M281.162567,237.940628 
	C283.637878,238.229172 286.113190,238.517700 289.904907,238.959686 
	C285.140015,235.417938 283.208923,235.280914 281.162567,237.940628 
z"/>
<path fill="#F6FAF9" opacity="1.000000" stroke="none" 
	d="
M289.011597,223.172531 
	C290.831268,223.076935 292.650909,222.981323 294.470581,222.885727 
	C294.641815,222.450531 294.813080,222.015350 294.984314,221.580154 
	C286.657959,218.397614 278.553375,214.226028 269.946167,212.295990 
	C260.321808,210.137894 250.258774,209.513351 240.354034,209.174789 
	C233.571060,208.942947 226.732376,210.340836 219.461899,210.760834 
	C218.992218,210.307373 218.979218,210.103256 219.170578,209.539215 
	C222.943771,208.788605 226.505524,208.307999 230.082947,208.026276 
	C237.192719,207.466370 244.311111,207.015991 252.135117,206.470932 
	C232.931473,204.455612 215.002960,207.446350 196.591125,212.728577 
	C199.608597,213.227051 201.976089,213.598373 204.336044,214.012619 
	C207.934570,214.644226 211.527893,215.305496 214.841309,216.161530 
	C214.370468,217.509430 214.181747,218.649963 213.993027,219.790527 
	C205.450058,218.764816 196.770126,218.357910 188.409760,216.507294 
	C182.299820,215.154846 176.682083,216.748459 170.309509,216.676910 
	C169.523224,215.973038 169.271545,215.564865 169.019867,215.156693 
	C177.095276,214.698090 185.170670,214.239502 193.246078,213.780899 
	C193.330566,214.049194 193.415054,214.317505 193.499542,214.585815 
	C191.753342,213.952728 190.007156,213.319656 187.794464,212.517441 
	C208.277740,207.382553 228.189362,201.915970 248.990784,204.136765 
	C257.272186,205.020920 265.565918,206.891052 273.531097,209.355972 
	C283.451263,212.425888 292.986816,216.718643 302.797180,220.174789 
	C305.941864,221.282623 309.410797,221.627747 312.767090,221.951019 
	C330.889984,223.696579 347.052979,231.165314 363.066193,239.058533 
	C364.489105,239.759933 365.581818,241.131210 367.463745,242.732346 
	C365.832031,243.263580 364.768829,243.609711 363.239746,243.663818 
	C362.522888,242.972595 362.271973,242.573395 362.020996,242.174210 
	C361.969635,241.579910 362.089294,240.550964 361.842346,240.453781 
	C350.285126,235.906250 338.852600,230.954559 327.052063,227.145035 
	C319.916687,224.841568 312.176544,224.461365 304.766235,222.934921 
	C301.896637,222.343826 299.187317,220.974380 296.090057,220.613663 
	C297.621674,221.601273 299.153259,222.588867 300.684875,223.576462 
	C300.692963,224.046509 300.701019,224.516571 300.709106,224.986618 
	C297.109314,224.986618 293.509552,224.986618 289.459412,224.631409 
	C289.009918,223.908295 289.010773,223.540421 289.011597,223.172531 
z"/>
<path fill="#FCFDFC" opacity="1.000000" stroke="none" 
	d="
M130.096115,254.056717 
	C133.739761,254.037689 136.910645,254.184128 140.056442,253.966995 
	C143.579834,253.723816 145.200912,254.742996 145.053940,258.662445 
	C144.781036,265.939789 144.975739,273.234650 144.975739,280.761047 
	C142.300873,280.761047 139.898682,280.761047 137.115250,280.761047 
	C137.115250,278.650635 137.115250,276.568726 137.115250,274.245789 
	C135.005814,274.245789 133.254669,274.245789 132.014023,274.245789 
	C131.640991,276.408875 131.279144,278.507111 130.883347,280.802307 
	C128.747040,280.802307 126.634644,280.802307 124.265244,280.802307 
	C124.265244,272.062225 124.265244,263.327820 124.265244,254.061752 
	C126.075340,254.061752 127.843819,254.061752 130.096115,254.056717 
M132.001358,264.403534 
	C131.795731,265.195251 131.590088,265.987000 131.374268,266.817993 
	C133.106354,266.817993 134.879669,266.817993 136.818909,266.817993 
	C136.818909,264.870575 136.818909,263.105896 136.818909,261.168701 
	C134.867722,261.168701 133.092377,261.168701 131.356567,261.168701 
	C131.581024,262.010559 131.791092,262.798401 132.001358,264.403534 
z"/>
<path fill="#FCFCFC" opacity="1.000000" stroke="none" 
	d="
M225.916672,281.004242 
	C220.800278,281.004150 216.171707,281.004150 211.282776,281.004150 
	C211.282776,271.999725 211.282776,263.275146 211.282776,254.036636 
	C217.019318,254.036636 222.792313,253.831223 228.528290,254.200546 
	C229.755127,254.279526 231.795959,256.404327 231.846954,257.652649 
	C232.157791,265.259430 232.002182,272.885284 232.002182,281.004333 
	C229.946991,281.004333 228.175735,281.004333 225.916672,281.004242 
M219.001114,264.514648 
	C218.775726,267.891510 218.550339,271.268341 218.321060,274.703644 
	C220.068253,274.703644 221.946457,274.703644 223.752228,274.703644 
	C223.752228,269.967285 223.752228,265.537323 223.752228,261.226929 
	C221.700790,261.226929 219.926773,261.226929 217.717728,261.226929 
	C218.254486,262.281006 218.608475,262.976196 219.001114,264.514648 
z"/>
<path fill="#FCFCFC" opacity="1.000000" stroke="none" 
	d="
M299.027466,257.184509 
	C299.971008,255.818741 300.882660,254.218185 301.864929,254.173630 
	C307.334991,253.925461 312.822144,254.054474 318.280426,254.054474 
	C320.434601,263.013855 319.345001,273.306183 315.986694,274.805573 
	C317.032379,276.570892 318.075287,278.331604 319.973419,281.536041 
	C316.269714,280.781281 313.338898,280.916595 311.436615,279.583801 
	C309.647308,278.330170 308.943237,275.527496 307.761719,273.406342 
	C307.256012,273.639343 306.750275,273.872345 306.244568,274.105377 
	C306.244568,276.187408 306.244568,278.269470 306.244568,280.681458 
	C303.841431,280.681458 301.755920,280.681458 299.028229,280.681458 
	C299.028229,273.174103 299.028229,265.421112 299.027466,257.184509 
M305.984924,263.542969 
	C305.476990,269.159576 309.356964,266.418915 311.825317,267.014435 
	C311.825317,264.821869 311.825317,263.092224 311.825317,260.180695 
	C309.530060,261.145081 307.760284,261.888672 305.984924,263.542969 
z"/>
<path fill="#FCFCFC" opacity="1.000000" stroke="none" 
	d="
M269.995911,266.010986 
	C269.995941,261.875214 269.995941,258.235687 269.995941,254.312424 
	C276.616302,254.312424 283.007629,254.312424 289.695557,254.312424 
	C289.695557,263.046112 289.695557,271.770813 289.695557,280.751129 
	C287.642883,280.751129 285.577728,280.751129 283.120422,280.751129 
	C283.120422,278.669495 283.120422,276.591492 283.120422,274.260254 
	C281.005035,274.260254 279.264191,274.260254 277.194427,274.260254 
	C277.079590,276.299713 276.962067,278.386414 276.829834,280.734406 
	C274.699249,280.734406 272.621796,280.734406 269.995911,280.734406 
	C269.995911,276.047119 269.995911,271.277191 269.995911,266.010986 
M283.008179,262.631012 
	C281.241608,261.887604 279.475037,261.144196 277.314697,260.235046 
	C277.314697,263.220306 277.314697,265.055389 277.314697,267.131165 
	C279.907196,266.533081 283.721375,268.670013 283.008179,262.631012 
z"/>
<path fill="#FCFCFC" opacity="1.000000" stroke="none" 
	d="
M160.308517,254.867279 
	C160.639236,261.619415 160.639236,268.061768 160.639236,274.748169 
	C162.687744,274.748169 164.088837,274.748169 165.605896,274.748169 
	C165.719925,274.352966 165.963623,273.896851 165.966385,273.439301 
	C165.997482,268.284271 166.073761,263.127258 165.961349,257.974640 
	C165.904144,255.352707 166.582993,253.882477 169.562698,254.006927 
	C172.124603,254.113922 174.096375,254.266953 174.022659,257.713348 
	C173.859924,265.322449 173.972076,272.937469 173.972076,280.774994 
	C166.938309,280.774994 160.209839,280.774994 152.998596,280.774994 
	C152.998596,272.775024 152.657532,264.828217 153.124939,256.929230 
	C153.410950,252.095917 157.284332,254.262009 160.308517,254.867279 
z"/>
<path fill="#FDFDFD" opacity="1.000000" stroke="none" 
	d="
M328.008209,265.017883 
	C328.008057,261.215851 328.008057,257.910004 328.008057,254.307236 
	C334.587952,254.307236 340.986176,254.307236 347.646179,254.307236 
	C348.091400,256.277008 348.573608,258.410370 349.165192,261.027496 
	C344.285400,261.027496 339.698486,261.027496 335.111572,261.027496 
	C338.162323,267.648499 344.114807,263.467468 348.803680,265.527557 
	C348.871826,266.918030 348.957123,268.658051 349.059662,270.749573 
	C344.469604,270.749573 340.051208,270.749573 335.625580,270.749573 
	C335.701355,274.340088 335.701355,274.340088 348.600769,275.209198 
	C348.600769,277.001709 348.600769,278.798737 348.600769,280.799561 
	C342.057800,280.799561 335.313538,280.799561 328.008362,280.799561 
	C328.008362,275.689423 328.008362,270.601715 328.008209,265.017883 
z"/>
<path fill="#FBFCFC" opacity="1.000000" stroke="none" 
	d="
M259.707245,280.976807 
	C253.280762,280.999786 247.331894,280.999786 241.192902,280.999786 
	C241.192902,271.874176 241.192902,263.143738 241.192902,254.259262 
	C247.787415,254.259262 254.190308,254.259262 260.789825,254.259262 
	C260.789825,256.420135 260.789825,258.371368 260.789825,260.707336 
	C256.868774,260.707336 252.787369,260.707336 248.344025,260.707336 
	C248.344025,265.477692 248.344025,269.882019 248.344025,274.709412 
	C252.140701,274.709412 256.210815,274.709412 261.188141,274.709412 
	C260.799713,277.126953 260.492310,279.040405 259.707245,280.976807 
z"/>
<path fill="#FBFCFC" opacity="1.000000" stroke="none" 
	d="
M199.948685,261.004089 
	C197.309174,260.823364 195.753540,260.902679 195.921875,263.998505 
	C196.217651,269.438202 196.004517,274.905548 196.004517,280.682678 
	C193.792343,280.682678 191.729736,280.682678 189.124268,280.682678 
	C189.124268,274.403107 189.124268,267.872589 189.124268,261.001709 
	C186.528885,261.001709 184.451492,261.001709 182.420471,261.001709 
	C181.675339,254.122208 181.675293,254.109314 187.710495,254.085159 
	C192.652618,254.065369 197.594879,254.081116 203.311142,254.081116 
	C201.573486,256.473022 205.953156,260.309662 199.948685,261.004089 
z"/>
<path fill="#FCFDFC" opacity="1.000000" stroke="none" 
	d="
M364.056427,276.773041 
	C364.015625,274.682343 364.015625,273.050079 364.015625,271.055695 
	C361.592896,271.055695 359.505432,271.055695 357.217010,271.055695 
	C357.217010,268.938934 357.217010,267.198151 357.217010,265.071106 
	C359.377380,265.071106 361.464111,265.071106 363.949554,265.071106 
	C363.949554,262.629059 363.949554,260.553955 363.949554,258.243256 
	C366.430908,258.243256 368.500336,258.243256 370.962128,258.243256 
	C370.962128,260.425903 370.962128,262.505707 370.962128,264.961365 
	C373.422058,264.961365 375.503174,264.961365 377.787781,264.961365 
	C377.787781,267.084839 377.787781,268.826996 377.787781,270.948944 
	C375.595398,270.948944 373.508087,270.948944 371.047302,270.948944 
	C371.047302,273.397949 371.047302,275.481750 371.047302,278.247192 
	C368.431763,277.864960 366.264496,277.548248 364.056427,276.773041 
z"/>
<path fill="#F6FBFA" opacity="1.000000" stroke="none" 
	d="
M266.911072,237.813766 
	C255.811295,237.871796 244.711548,237.959351 233.611710,237.975876 
	C227.724777,237.984650 225.241318,234.498703 226.716202,228.467072 
	C225.520279,227.746292 224.325623,227.023239 223.130951,226.300186 
	C223.203308,225.871918 223.275665,225.443665 223.348022,225.015396 
	C231.614670,226.011215 239.881317,227.007034 248.576385,228.411682 
	C249.001251,229.499207 248.997726,230.177902 248.994202,230.856613 
	C242.159164,230.856613 235.324127,230.856613 228.164505,230.856613 
	C228.757706,232.219162 229.535538,234.005798 230.408936,236.011963 
	C242.236160,236.011963 254.148056,236.011963 266.502289,236.499252 
	C266.933441,237.262268 266.922272,237.538010 266.911072,237.813766 
z"/>
<path fill="#F2F5F4" opacity="1.000000" stroke="none" 
	d="
M184.912704,234.097931 
	C175.891052,229.561615 166.975021,228.229568 158.328278,234.979050 
	C157.875885,235.332184 157.230530,235.615875 157.027664,236.084534 
	C153.380142,244.511444 145.794968,243.571747 138.413834,244.050766 
	C137.324448,241.508011 135.965485,239.107803 135.278061,236.528625 
	C134.486588,233.559158 134.915787,230.728378 138.300781,229.274841 
	C145.587555,226.145844 145.573456,226.134155 141.105225,219.581223 
	C140.842926,219.196533 140.837723,218.636551 140.694916,217.717178 
	C140.811203,217.161346 140.945450,217.046494 141.079681,216.931656 
	C142.653259,219.122665 144.777634,221.112625 145.668289,223.552902 
	C146.929764,227.009125 144.817276,230.264709 141.606796,230.567627 
	C135.385651,231.154617 136.969620,234.525818 138.022461,238.046066 
	C138.385040,239.258362 138.894608,240.426697 139.499344,242.051147 
	C145.222427,241.227982 151.462921,242.218719 155.185913,235.418991 
	C159.517273,227.508133 178.026184,225.272873 185.336151,233.321701 
	C185.191162,233.859421 185.051941,233.978668 184.912704,234.097931 
z"/>
<path fill="#F0F5F3" opacity="1.000000" stroke="none" 
	d="
M214.432129,219.871063 
	C214.181747,218.649963 214.370468,217.509430 215.194443,216.173553 
	C216.534180,215.944366 217.238678,215.910507 218.143616,216.172226 
	C220.169754,216.975983 221.995468,217.484161 223.821167,217.992340 
	C227.072021,218.651657 230.296204,219.649429 233.578644,219.908051 
	C244.233139,220.747559 254.911530,221.278595 265.575256,222.008698 
	C269.600616,222.284302 273.610992,222.779190 277.628204,223.174118 
	C277.663513,223.636948 277.698822,224.099792 277.734131,224.562637 
	C276.342316,224.711533 274.936829,225.066925 273.560883,224.975906 
	C264.389038,224.369141 255.214996,223.764709 246.058121,222.970032 
	C235.653534,222.067093 225.266113,220.966354 214.432129,219.871063 
z"/>
<path fill="#F6FAF9" opacity="1.000000" stroke="none" 
	d="
M335.292542,236.713043 
	C338.400208,238.630035 341.265503,240.252167 344.130798,241.874313 
	C339.519623,242.312592 336.254211,241.622314 333.189178,237.176620 
	C329.347107,231.603806 320.643524,228.678925 311.689209,232.924362 
	C308.879333,234.256607 306.696442,237.103043 303.826996,238.066666 
	C300.636169,239.138214 296.989197,238.851578 293.530457,239.157135 
	C293.530457,238.080963 293.530457,237.759506 293.530457,237.438034 
	C302.212311,239.085266 307.232086,231.012192 314.838745,229.432556 
	C322.105286,227.923584 331.090851,230.437668 335.292542,236.713043 
z"/>
<path fill="#FBFCFC" opacity="1.000000" stroke="none" 
	d="
M207.002960,225.804169 
	C204.156845,225.882416 202.882355,226.767349 204.918533,229.592789 
	C206.798080,232.200851 208.571381,234.885513 210.508896,237.707474 
	C208.584381,238.103012 206.525009,238.526260 205.739777,238.687637 
	C204.759491,235.665344 203.818726,233.160339 203.153152,230.584229 
	C202.645782,228.620407 202.487442,226.566422 202.173828,224.552536 
	C203.874985,224.307831 205.576141,224.063126 207.522858,224.206787 
	C207.513260,224.998169 207.258118,225.401169 207.002960,225.804169 
z"/>
<path fill="#E5F3F1" opacity="1.000000" stroke="none" 
	d="
M249.426880,230.936005 
	C248.997726,230.177902 249.001251,229.499207 248.999878,228.481171 
	C254.920181,228.736313 260.845398,229.330795 266.770630,229.925262 
	C261.198181,233.446686 255.495193,231.283188 249.426880,230.936005 
z"/>
<path fill="#E8EFED" opacity="1.000000" stroke="none" 
	d="
M168.555206,215.083282 
	C169.271545,215.564865 169.523224,215.973038 169.881775,216.596695 
	C163.153946,216.812195 156.319229,216.812195 149.484512,216.812195 
	C149.470581,216.211411 149.456635,215.610641 149.442703,215.009857 
	C155.658661,215.009857 161.874603,215.009857 168.555206,215.083282 
z"/>
<path fill="#ECF1F1" opacity="1.000000" stroke="none" 
	d="
M361.567505,242.099442 
	C362.271973,242.573395 362.522888,242.972595 362.879181,243.583359 
	C357.121368,243.480515 351.258209,243.166077 345.395050,242.851654 
	C345.428894,242.285263 345.462769,241.718872 345.496613,241.152481 
	C350.702393,241.443207 355.908203,241.733948 361.567505,242.099442 
z"/>
<path fill="#FCFDFC" opacity="1.000000" stroke="none" 
	d="
M223.814163,217.649841 
	C221.995468,217.484161 220.169754,216.975983 218.041306,215.835083 
	C216.647125,213.781326 215.555695,212.360291 213.976913,210.304718 
	C216.397751,210.107941 217.681992,210.003540 218.966232,209.899155 
	C218.979218,210.103256 218.992218,210.307373 219.025330,210.817627 
	C217.975891,215.230835 221.688110,215.655685 223.814163,217.649841 
z"/>
<path fill="#F2F5F4" opacity="1.000000" stroke="none" 
	d="
M187.078720,234.910934 
	C191.511902,235.959671 195.945084,237.008408 199.938705,237.953171 
	C196.509338,240.246490 188.746643,239.452103 186.686310,235.718155 
	C186.805359,235.148666 186.942047,235.029800 187.078720,234.910934 
z"/>
<path fill="#ECF1F1" opacity="1.000000" stroke="none" 
	d="
M207.441498,225.883286 
	C207.258118,225.401169 207.513260,224.998169 207.869720,224.378784 
	C212.192505,224.496674 216.413956,224.830933 220.635422,225.165192 
	C220.585602,225.772415 220.535782,226.379639 220.485962,226.986862 
	C216.283981,226.645386 212.082016,226.303894 207.441498,225.883286 
z"/>
<path fill="#E8EFED" opacity="1.000000" stroke="none" 
	d="
M267.311310,237.895874 
	C266.922272,237.538010 266.933441,237.262268 266.964844,236.573090 
	C270.834473,236.159622 274.683899,236.159622 278.533325,236.159622 
	C278.571564,236.765747 278.609772,237.371872 278.647980,237.977997 
	C275.002502,237.977997 271.357025,237.977997 267.311310,237.895874 
z"/>
<path fill="#F2F5F4" opacity="1.000000" stroke="none" 
	d="
M140.464722,217.434921 
	C139.447876,216.699310 138.643250,215.805008 137.838638,214.910706 
	C138.012146,214.510040 138.185669,214.109375 138.359177,213.708725 
	C141.525208,214.159409 144.691254,214.610107 147.857285,215.060791 
	C147.789276,215.592651 147.721268,216.124512 147.653259,216.656372 
	C145.545425,216.498138 143.437576,216.339920 141.204712,216.556671 
	C140.945450,217.046494 140.811203,217.161346 140.464722,217.434921 
z"/>
<path fill="#FDFDFD" opacity="1.000000" stroke="none" 
	d="
M280.730194,237.681473 
	C283.208923,235.280914 285.140015,235.417938 289.904907,238.959686 
	C286.113190,238.517700 283.637878,238.229172 280.730194,237.681473 
z"/>
<path fill="#E8EFED" opacity="1.000000" stroke="none" 
	d="
M288.559021,223.093292 
	C289.010773,223.540421 289.009918,223.908295 289.010376,224.552094 
	C286.820892,224.828018 284.630157,224.828018 282.439392,224.828018 
	C282.410034,224.339310 282.380676,223.850616 282.351318,223.361908 
	C284.269684,223.245956 286.188080,223.129990 288.559021,223.093292 
z"/>
<path fill="#F2F5F4" opacity="1.000000" stroke="none" 
	d="
M186.435364,235.406738 
	C185.817673,235.225021 185.433304,234.904099 184.980820,234.340546 
	C185.051941,233.978668 185.191162,233.859421 185.568878,233.603271 
	C186.184372,233.788391 186.561371,234.110413 187.008545,234.671692 
	C186.942047,235.029800 186.805359,235.148666 186.435364,235.406738 
z"/>
<path fill="#000000" opacity="1.000000" stroke="none" 
	d="
M219.170578,209.539215 
	C217.681992,210.003540 216.397751,210.107941 213.976913,210.304718 
	C215.555695,212.360291 216.647125,213.781326 217.840851,215.539490 
	C217.238678,215.910507 216.534180,215.944366 215.476562,215.966202 
	C211.527893,215.305496 207.934570,214.644226 204.336044,214.012619 
	C201.976089,213.598373 199.608597,213.227051 196.591125,212.728577 
	C215.002960,207.446350 232.931473,204.455612 252.135117,206.470932 
	C244.311111,207.015991 237.192719,207.466370 230.082947,208.026276 
	C226.505524,208.307999 222.943771,208.788605 219.170578,209.539215 
z"/>
<path fill="#000000" opacity="1.000000" stroke="none" 
	d="
M132.001251,263.994904 
	C131.791092,262.798401 131.581024,262.010559 131.356567,261.168701 
	C133.092377,261.168701 134.867722,261.168701 136.818909,261.168701 
	C136.818909,263.105896 136.818909,264.870575 136.818909,266.817993 
	C134.879669,266.817993 133.106354,266.817993 131.374268,266.817993 
	C131.590088,265.987000 131.795731,265.195251 132.001251,263.994904 
z"/>
<path fill="#000000" opacity="1.000000" stroke="none" 
	d="
M218.981796,264.093018 
	C218.608475,262.976196 218.254486,262.281006 217.717728,261.226929 
	C219.926773,261.226929 221.700790,261.226929 223.752228,261.226929 
	C223.752228,265.537323 223.752228,269.967285 223.752228,274.703644 
	C221.946457,274.703644 220.068253,274.703644 218.321060,274.703644 
	C218.550339,271.268341 218.775726,267.891510 218.981796,264.093018 
z"/>
<path fill="#000000" opacity="1.000000" stroke="none" 
	d="
M305.987732,263.087646 
	C307.760284,261.888672 309.530060,261.145081 311.825317,260.180695 
	C311.825317,263.092224 311.825317,264.821869 311.825317,267.014435 
	C309.356964,266.418915 305.476990,269.159576 305.987732,263.087646 
z"/>
<path fill="#000000" opacity="1.000000" stroke="none" 
	d="
M283.010315,263.085754 
	C283.721375,268.670013 279.907196,266.533081 277.314697,267.131165 
	C277.314697,265.055389 277.314697,263.220306 277.314697,260.235046 
	C279.475037,261.144196 281.241608,261.887604 283.010315,263.085754 
z"/>
</svg>